<?xml version="1.0" encoding="UTF-8"?><svg id="Layer_1" xmlns="http://www.w3.org/2000/svg" xmlns:xlink="http://www.w3.org/1999/xlink" viewBox="0 0 1200 500"><defs><style>.cls-1{clip-path:url(#clippath);}.cls-2,.cls-3{fill:#6a9fb5;}.cls-3,.cls-4{stroke:#2d4f60;stroke-miterlimit:10;}.cls-4{fill:none;}</style><clipPath id="clippath"><rect class="cls-3" x="0" y="0" width="1200" height="500"/></clipPath></defs><rect class="cls-2" x="0" y="0" width="1200" height="500"/><g class="cls-1"><path class="cls-3" d="M541.89,10.19c.27-6.64.32-13.28.1-19.89h-21.56c.16,1.14.32,2.27.49,3.41,3.02,19.74,1.93,40.17,7.42,59.86,4.22,15.12,4.96,30.32-2.96,44.84-7.49,13.72-11.54,28.34-12.01,44.08-.34,11.39-6.31,19-17.76,21.48-22.09,4.78-42.87,4.57-63.11-8.87-25.85-17.16-55.12-26.8-85.74-32.08-15.64-2.7-31.18-6.05-45.15-13.92-17.75-10-36.7-16.81-56.09-22.75-14.07-4.31-27.45-10.44-35.4-23.63-13.88-23.07-32.8-41.07-54.48-56.53-5.91-4.22-9.89-9.58-12.58-15.89h-38.17c-3.4,7.81-10.78,12.55-21.18,14.94-6.45,1.48-13.05,1.6-19.58,2.35C33.31,11.14,5.29,21.13-17.1,43.68v13.19C-6.18,61.71.2,52.91,7.16,47.93c23.25-16.64,48.66-21.47,76.18-15.36,16.72,3.71,21.21,9.3,21.06,26.64-.15,16.56,2.95,32.18,9.04,47.51,3.72,9.35,6.48,19.19,4.99,29.5-3.8,26.36,5.15,45.23,30.66,55.86,15.11,6.3,24.22,18.31,27.38,34.73,1.88,9.79-.57,17.22-9.37,22.38-6.45,3.78-13.49,7.34-17.2,14.02-12.19,21.89-23.96,44.05-24.16,70.11-.16,21.52.42,43.05-.27,64.56-.53,16.52-10.68,27.85-26.93,30.94-3.45.66-6.96,1.01-10.4,1.76-19.03,4.12-27.16,12.47-30.24,31.59-1.26,7.79-2.1,15.65-3.36,23.46-1.53,9.53-6.12,16.12-15.41,19.52-3.79,1.39-9.06,1.86-8.75,8.01h50.14c4.63-3.95,6.9-9.13,7.23-15.03.77-13.58,8.06-22.78,19.14-29.72,10.09-6.32,19.05-14.03,27.8-22.14,15.88-14.71,21.75-31.23,16.69-53.24-6.21-27.01-3.33-54.08,6.61-80.31,5.69-15.03,13.72-26.65,29.6-33.07,15.18-6.13,23.75-21.32,20.29-36.25-7.28-31.37-18.93-60.73-49.2-77.72-12.21-6.85-18.82-16.96-19.96-30.59-1-11.92-3.57-23.47-7.11-34.81-5.22-16.71-3.95-32.92,2.86-48.89,6.25-14.65,13.79-17.16,27.95-9.32,11.18,6.19,18.63,16.07,25.31,26.4,12.03,18.61,28.55,30.55,49.76,36.71,13.92,4.04,27.82,8.44,39.85,17.04,16.17,11.56,34.13,17.89,54.01,18.91,34.21,1.77,65.27,12.5,93.1,32.63,7.52,5.44,15.96,9.89,25.3,10.67,20.54,1.73,41,4.6,61.74,3.97,24.36-.75,33-9.95,28.34-34.11-3.31-17.17-1.86-32.97,5.49-48.68,8.38-17.92,8.72-36.39,3.05-55.3-3.91-13.03-7.05-26.26-6.49-40.12Z"/><path class="cls-3" d="M1207.12,459.61c-8.78,13.7-16.97,27.78-26.1,41.24-2.44,3.59-3.49,8.19-.06,12.3h13.19c5.21-4.25,9.39-9.16,12.96-14.46v-39.07Z"/><path class="cls-3" d="M1204.61,177.24c.86-.29,1.69-.6,2.51-.93v-85.65c-3.95,2.36-9.22,3.29-15.97,3.26-23.61-.09-29.29,4.56-33.55,27.41-3.25,17.45-8.61,21.99-26.47,22.88-24.42,1.23-48.23-1.84-71.48-9.44-11.41-3.73-23.04-5.74-35.08-3.72-19.07,3.2-38.08,6.73-57.13,10.05-15.64,2.73-26.73,12.04-30.23,27.71-3.71,16.62-13.53,26.49-28.57,33.49-41.22,19.19-71.3,48.99-85.38,93.23-1.2,3.76-2.92,7.35-4.43,11.01-12.17,29.56-21.74,60.43-43.4,85.2-2.57,2.94-3.59,6.97-5.09,10.64-15.77,38.58-1.08,74.48,9.51,110.76h7.92c3.43-3.41,4.3-7.56,3.31-12.14-2.96-13.68-3.62-27.76-6.47-41.39-5.89-28.25,2.41-51.65,17.94-75.5,22.71-34.87,44.36-70.7,60.6-109.3,4.05-9.63,9.63-17.79,18.41-23.45,13.3-8.58,26.58-16.94,42.93-19.19,14.41-1.99,25.29-9.65,30.85-23.72,2.59-6.56,5.03-13.21,6.3-20.11,3.39-18.51,15.65-25.97,33.01-28.72,25.33-4.01,50.46-6.97,75.61.94,4.17,1.31,8.7,1.2,13.1,1.31,26.5.67,52.48,3.66,77.32,14.01,14.2,5.92,29.17,6.3,43.93,1.37Z"/><path class="cls-3" d="M542.54-9.71c.16,5.81.24,11.63.16,17.45-.2,14.66,1.62,28.98,6.15,42.85,6.12,18.73,5.56,36.94-1.57,55.37-7.51,19.42-5.71,38.83,2.5,57.73,3.33,7.67,7.7,14.8,11.86,22.04,7.45,12.95,4.21,18.35-10.91,18.98-9.51.4-18.14-2.83-26.87-5.85-16.61-5.74-33.16-11.13-51.07-12.13-19.24-1.07-38.71-2.67-55-15.13-26.83-20.52-57.43-29.47-90.93-30.2-18.81-.41-36.36-5.38-51.79-16.9-9.54-7.12-19.84-13.35-31.64-15.86-26.21-5.57-46.89-18.65-61.69-41.44-6.94-10.68-16.79-18.9-31.04-14.51-14.02,4.33-16.73,16.78-18.75,29.23-.71,4.37-.48,8.78.29,13.13,1.98,11.25,4.11,22.47,6.96,33.54,3.58,13.88,11.25,24.91,24.19,31.39,12.83,6.42,21.48,16.5,27.77,28.95,8.53,16.87,19.93,32.6,26.33,50.11,10.46,28.63,27.23,46.16,58.97,47.24,6.52.22,13.79,3.85,14.22,11.48.44,7.65-7.24,9.5-12.96,10.93-20.1,5.01-34.19,17.3-44.45,34.7-.89,1.51-2.03,2.87-3.1,4.27-10.74,14.15-18.58,16.35-35.4,9.91-2.87-1.1-5.66-2.42-8.56-3.45-8.94-3.19-18.05-5.72-25.99,1.87-8.28,7.91-8.46,17.78-5.64,28.15,2.9,10.66,10.59,17.98,17.39,26.05,11.04,13.11,9.81,20.49-5.92,27.16-26.91,11.42-44.06,34.35-64.54,53.27-5.81,5.37-10.51,13.4-5.16,22.5h21.11c8.42-4.98,15.27-11.83,21.75-18.97,10.61-11.67,22.7-20.09,38.64-23.45,15.36-3.23,28.63-12.41,33.89-26.94,9.51-26.3,23.59-49.47,40.67-71.18.8-1.02,1.33-2.29,1.8-3.51,7.14-18.41,19.78-28.81,40.1-31.29,17.04-2.07,28.29-13.33,34.34-29.32,6.76-17.86,1.13-31.83-15.98-40.58-10.29-5.26-21.36-8.12-32.63-10.16-13.7-2.47-23.21-9.65-28.17-22.86-3.41-9.08-7.31-18.27-14.18-25.12-15.43-15.41-24.62-33.86-30.26-54.63-4.09-15.07-13.36-25.61-29.47-28.62-6.74-1.26-11.13-5.09-13.07-11.52-1.34-4.44-4.92-10.06,0-13.27,4.52-2.95,7.96,2.63,10.5,5.66,11.73,13.96,26.5,21,44.62,22.14,12.52.79,23.9,5.62,34.47,12.24,20.56,12.88,42.7,19.59,67.18,20.69,21.88.99,44.68,2.5,61.72,18.87,16.42,15.77,36.21,20.86,57.74,21.81,20.83.93,40.93,4.36,60.07,13.12,12.39,5.67,25.28,10.16,38.71,12.89,51.25,10.44,103.7,11.91,155.21,20.79,17.74,3.06,34.98-3.07,44.58-21.3,14.81-28.12,24.66-29.43,46.96-6.42.92.95,1.85,1.88,2.74,2.85,14.01,15.25,15.74,26.72,3.96,43.59-9.52,13.63-12.21,28.05-9.54,43.74,3,17.59-1.25,33.44-11.69,47.18-12.76,16.8-19.57,35.51-24.64,55.82-8.97,36.01,4.54,66.77,19.11,97.71h7.92c3.74-4.94,1.26-10.16.43-15.16-1.8-10.79-5.4-21.15-8.09-31.74-8.01-31.49-3.76-60.64,16.87-86.59,11.38-14.32,20.06-30.1,22.74-48.34,3.55-24.15,9.33-47.28,23.89-67.52,3.31-4.6,5.08-10.33,6.12-15.93,2.43-13.19,9.73-21.68,21.96-27.43,22.27-10.46,39.32-27.15,48.83-49.78,8.79-20.91,24.26-29.69,45.56-32.26,18.73-2.26,37.66-3.43,56.02-8.41,20.22-5.49,40.05-4.08,59.35,4.16,11,4.69,22.51,7.58,34.38,8.79,29.3,3.01,41.1-5.45,47.92-33.99.71-2.99,1.59-5.95,2.24-8.95,2.45-11.29,9.02-19.42,19.98-22.49,15.67-4.39,26.52-13.7,34.36-26.19V-9.71s-664.58,0-664.58,0Z"/><path class="cls-3" d="M563.62,179.72c-15.68-24.63-22.23-50.01-9.63-78.51,5.72-12.95,5.97-27.22,2.24-41.34-3.34-12.68-8.66-25.19-8.41-38.41.2-10.39-.03-20.78-.42-31.17h-10.29c0,2.08-.04,4.17-.14,6.26-.89,19.49,1.37,38.44,7.25,57.1,4.44,14.08,5.94,28.61-.57,42.48-9.99,21.29-14.02,42.59-7.19,66.05,3.62,12.45-5.03,21.04-17.96,21.24-11.87.18-23.8.74-35.6-.13-24.48-1.8-47.41-5.6-68.72-21.68-18.5-13.97-41.89-21.22-66.26-23.29-21.23-1.8-43.59-2.21-61.53-15.86-14.4-10.96-30.59-17.2-47.5-21.89-20.99-5.82-36.55-17.66-48.08-36.22-8.8-14.17-19.43-26.91-37.14-31.51-10.7-2.78-16.99,1.2-21.21,10.17-9.27,19.69-12.53,39.87-5,61.07,3.52,9.91,5.59,20.11,6.17,30.82.71,13.06,4.66,26.23,17.48,32.01,30.14,13.58,41.22,40.67,50.5,68.8,6.78,20.57-.97,35.01-21.32,42.29-9.88,3.53-16.1,9.73-20.69,18.85-16.23,32.25-20.62,66.31-12.4,101,4.29,18.1-1.33,30.36-13.23,42.2-9.99,9.94-20.32,19.27-32.86,26.03-19,10.24-17.64,29.65-20.58,47.06h15.83c1.65-6.84,2.43-14.81,7.9-19.2,21.97-17.62,37.61-42.78,66.07-52.83,17.69-6.25,19.47-18.14,7.1-32.7-3.12-3.68-6.74-6.93-10.17-10.34-6.58-6.56-9.45-14.88-10.03-23.76-.96-14.63,8.72-21.89,22.68-17.34,5.4,1.76,10.52,4.39,15.78,6.61,11.99,5.07,25.09,5.52,32.35-5.42,15.23-22.95,31.71-42.07,60.52-48.61,12.04-2.74,12.17-13.7,2.58-22.34-8.53-7.69-19.51-7.22-29.75-8.71-12.35-1.79-23.93-5.22-28.47-17.86-9.42-26.24-25.95-48.76-37.45-73.9-6.32-13.81-15.57-25.43-30.63-31.1-5.95-2.24-11.27-6.48-13.77-11.86-10.98-23.69-18.95-48.26-11.49-74.68,4.05-14.36,18.94-18.17,30.32-8.38,3.6,3.09,6.64,7.04,9.22,11.06,13.22,20.55,31.38,34.22,55.36,39.33,14.08,3,26.71,8.68,37.94,17.46,17.49,13.68,37.83,17.56,59.3,17.98,30.28.6,57.58,9.66,81.9,28.03,10.96,8.28,23.32,13.01,37.5,14.49,18.61,1.94,37.37,2.74,55.63,8.89,15.14,5.11,29.65,13.51,46.8,12.08,7.65-.64,14.16-2.72,17.77-9.19,3.17-5.68-.83-10.86-4.12-15.6-1.25-1.8-2.39-3.68-3.57-5.53Z"/><path class="cls-3" d="M1207.12,40.48c-.42.92-.84,1.86-1.23,2.83-4.45,10.89-11.09,22.99-23.42,25.3-26.6,5-34.86,23.09-38.44,46.38-2.45,15.95-10.54,22.78-26.6,23.58-15.57.78-30.61-1.74-44.95-7.99-12.97-5.65-26.75-10.87-40.6-9.06-28.15,3.68-55.92,10.05-84.28,12.8-21.42,2.08-35.96,12.8-44.27,33.66-9.1,22.84-26.24,39.53-48.92,49.15-13.26,5.62-19.92,14.5-22.16,28.26-1.41,8.68-5.47,16.56-10.28,24.07-8.27,12.91-15.02,25.91-16.61,42.18-2.54,25.94-12.08,49.31-29.01,70.53-17.72,22.21-21.12,49.72-15.48,77.5,3.66,18,9.07,35.65,13.69,53.46h5.28c.54-16.51-4.9-31.98-8.58-47.71-7.19-30.69-3.45-58.69,16.97-83.97,7.91-9.8,14.46-20.71,18.98-32.92,11.88-32.11,25.14-63.67,41.19-94,3.15-5.95,6.49-11.77,12-15.45,17.13-11.46,33.15-24.96,52.1-33.25,16.4-7.17,26.16-17.76,29.1-35.73,2.17-13.28,11.06-21.46,24.76-23.92,18.08-3.25,36.05-7.11,54.2-9.94,11.19-1.74,22.48-2.05,33.65,1.85,24.24,8.47,49.24,11.92,74.98,11.19,24.25-.68,30.59-5.96,33.36-30.46,1.78-15.76,8.51-21.4,23.84-19.88,8,.79,15,.64,20.73-1.89v-56.6Z"/><path class="cls-3" d="M526.4,8.45c.62-6.09.69-12.14.3-18.15h-16.13c.92,8.32.95,16.76.57,25.26-.6,13.39,2.65,26.13,5.81,38.95,3.95,15.99,2.78,31.32-6.33,45.63-5.45,8.57-9.84,17.81-12.26,27.63-6.61,26.85-32.12,31.83-51.87,20.22-9.11-5.36-18.51-10.23-28.69-13.2-56.09-16.38-108.87-42.27-165.49-57.21-15.68-4.14-28.59-13.17-37.08-27.73-8.03-13.78-18.67-25.46-30.15-36.46-7.29-6.99-14.54-14.06-20.45-22.34-.18-.25-.35-.51-.53-.76h-26.35c3.49,7.88,9.01,15.05,16.52,20.71,18.93,14.28,37.49,29.03,48.86,50.57,7.96,15.07,21.44,23.76,36.7,28.14,23.38,6.71,45.46,15.83,66.85,27.24,12.08,6.44,25.74,8.95,39.16,10.9,30.03,4.35,58.42,13.95,83.16,30.92,22.63,15.52,45.69,14.77,70.22,9.52,13.41-2.87,19.18-12.42,19.1-24.84-.1-15.47,4.06-29.28,11.16-42.74,6.02-11.42,8.13-23.1,5.86-36.68-3.1-18.48-10.93-36.21-8.95-55.61Z"/><path class="cls-3" d="M193.48-9.71c1.78,1.99,3.75,4.06,5.93,6.25,9.93,9.97,20.63,19.38,25.5,33.15,10.61,30,34,41.65,63.5,42.15,20.57.34,38.87,4.78,55.57,17.06,11.4,8.39,24.91,12.93,38.61,7.55,14.39-5.66,26.56-3.19,40.23,2.72,28.01,12.11,57.15-4.49,63.29-34.39,2.75-13.37,2.48-27.16,5.73-40.43,2.89-11.77,3.14-23.1.26-34.05H193.48Z"/><path class="cls-3" d="M515.99-.56c.16-3.09.15-6.14-.06-9.15h-18.59c1.86,6.85,2.22,14,1.4,21.54-1.62,14.83-1.73,29.86.91,44.69,2.37,13.34-.79,24.78-8.83,35.86-12.57,17.32-26.35,28.41-50.21,26.97-34.92-2.11-68.14-9.83-98.04-26.8-19.31-10.96-38.05-18.66-60.3-19.98-22.78-1.34-43.23-9.82-55.21-30.84-10.58-18.57-24.2-34.35-39.08-49.46-.66-.67-1.29-1.33-1.9-1.98h-27.95c3.07,5.01,7.14,10.07,12.24,15.25,14.45,14.67,30.75,27.88,40.59,46.42,8.92,16.82,23.57,25.89,40.82,30.6,28.82,7.86,57.39,16.01,84.18,29.69,7.68,3.92,16.7,5.13,24.93,8.06,28.86,10.29,58.81,17.58,85.63,33.38,21.34,12.58,50.73,3.38,55.59-21.62,2.1-10.79,6.55-21.12,12.9-30.13,9.93-14.09,11.45-29.61,7.2-45.26-5.13-18.9-7.22-37.84-6.2-57.25Z"/><path class="cls-3" d="M503.4,13.98c1.21-8.54.67-16.27-1.25-23.68h-14.82c3.23,11.36,2.91,23.12-.6,35.41-1.95,6.82-1.66,13.92-2.75,20.76-1.76,11.09-1.06,22.97-7.86,32.86-13.17,19.16-34.84,24.74-56.74,13.43-11.27-5.82-21.25-8.38-33.41-2.07-13.34,6.92-27.33,3.94-38.48-4.97-18.68-14.92-39.55-18.39-62.73-18.8-21.72-.38-42.62-7.8-51.44-30.15-7.03-17.82-17.97-31.72-31.39-44.69-.63-.6-1.23-1.2-1.82-1.78h-20.71c1.84,2.19,3.91,4.44,6.25,6.77,11.18,11.16,23.76,21.49,30.48,35.98,14.79,31.9,40.71,44.28,74.07,44.91,11.63.22,24.18,1.44,32.7,8.38,22.03,17.95,48.72,23.17,74.37,31.87,20.37,6.91,41.32,6.92,61.85,5.77,23.61-1.32,50.53-42.22,45.54-66.78-2.94-14.49-3.25-29.18-1.27-43.21Z"/><path class="cls-3" d="M117.48,513.14c14.7-19.41,28.17-40.04,54.79-45.34,23.07-4.59,37.08-19.82,42.57-41.85,3.86-15.5,9.75-28.92,22.33-39.08,7.85-6.35,11.3-15.73,14.92-24.55,7.51-18.29,20.72-27.05,40.22-28.73,18.85-1.62,35.31-19.92,35.05-38.59-.12-8.32-3.04-16.11-11.76-20.59-11.87-6.09-24.28-10.02-37.41-11.98-15.26-2.28-25.89-10.37-30.67-25.31-4.26-13.29-11.83-24.33-21.83-33.94-10.12-9.73-15.38-22.15-18.99-35.46-5.09-18.78-10.87-36.21-35.44-37.8-10.12-.65-18.03-24.74-12.31-33.38,2.82-4.25,6.3-6.23,10.75-1.89,1.89,1.84,4.1,3.46,5.59,5.58,12.69,18.04,30.81,24.39,51.99,25.46,11.2.56,21.01,6.29,30.25,12.23,19.31,12.4,39.99,18.62,63.16,19.53,27.74,1.1,54.51,5.55,75.37,28.02,11.6,12.5,29.97,12.68,45.79,13.26,21.91.8,42.65,4.38,62.26,13.84,25.01,12.07,52.43,13.2,78.99,18.43,37.36,7.36,75.89,5.04,113.02,14.97,16.81,4.49,35.11-7.9,41.57-24.45,8.89-22.76,27.95-27.07,44.99-10.17,4.37,4.33,8.83,8.58,13.03,13.07,12.86,13.75,14.96,29.15,3.6,43.92-11.77,15.31-13.13,31.14-9.88,49.41,2.87,16.11-3.14,31.15-12.85,44.24-28.53,38.46-36.93,79.47-16.82,124.52,3.75,8.4,5.92,17.41,6.91,26.63h-7.92c-9.51-22.39-24.18-43.89-21.94-69.12,2.72-30.73,5.91-61.93,25.8-88.12,9.54-12.56,11.7-27.06,7.7-42.55-3.08-11.91-4.92-24.08-6.03-36.37-1.19-13.32-3.97-15.21-17.8-13.98-18.3,1.64-36.48,5.37-55.05,2.19-56.67-9.7-113.99-15.42-170.29-27.47-9.05-1.94-18.56-2.93-26.26-8.21-24.96-17.09-52.52-18.9-80.9-13.72-23.4,4.27-40.99-.67-52.93-23.21-8.65-16.32-26.8-17.91-42.7-19.23-20.97-1.74-42.09-1.09-62.91-5.41-5.04-1.05-12.17-2.73-15.19,4.12-2.75,6.22,1.48,11.03,5.67,14.99,10.61,10,16.37,22.4,20.31,36.26,4.57,16.04,10.95,20.29,27.65,20.98,7.91.33,15.83-.11,23.73.33,29.97,1.68,48.35,30.94,36.12,58.62-10.32,23.35-24.46,43.77-49.02,54.63-14.05,6.21-21.56,16.53-22.94,32.36-2.5,28.69-16.62,50.32-42.18,64.37-11.66,6.41-21.3,15.5-30.12,25.39-9.71,10.88-21.28,18.08-36.07,19.91-10.38,1.28-18.51,7.63-26.89,13.23-9.68,0-19.35,0-29.03,0Z"/><path class="cls-3" d="M1207.12,217.21v-45.2c-2.88,1.2-6.29,2.1-10.27,2.79-9.45,1.62-19.27,2.11-28.65-1.37-19.74-7.33-39.43-14.38-61.03-14.36-35.07.04-68.86-13.2-105.23-5.5-31.25,6.62-38.13,7.9-45.79,38.56-5.49,21.99-16.93,33.06-40.75,37.61-23.16,4.42-45.78,16.29-56.02,41.09-16.46,39.87-39.03,76.43-62.1,112.55-14.27,22.34-23.7,44.24-17.91,71.43,4.09,19.17,5.68,38.88,8.38,58.34h7.92c4.37-4.12,4.44-9.35,3.62-14.69-2.19-14.32-3.21-28.81-5.5-43.08-3.54-22.05,1.72-41.24,13.69-59.97,20.59-32.19,42.62-63.33,64.18-94.83,12.24-17.88,25.67-30.51,46.47-35.6,5.96-1.46,11.85-3.3,17.61-5.51,22.2-8.51,36.5-21.52,37.22-48.2.79-29.29,12.47-38.43,41.84-38.77,26.81-.31,53.62.18,80.43-.17,17.67-.23,33.94,4.17,49.04,13.02,13.32,7.8,26.98,14.74,42.02,18.68,8.34,2.18,15.13,6.85,20.82,13.19Z"/><path class="cls-3" d="M1207.12,443.4c-14.19,17.79-26.66,36.94-38.89,56.22-2.51,3.96-4.26,8.9-.46,13.53h13.19c4.88-16.71,16.9-29.14,26.16-43.24v-26.51Z"/><path class="cls-3" d="M745.54,513.14h-7.92c-11.94-15.52-19.27-33.26-24.57-51.87-2.5-8.77.39-17.56,2.55-25.89,7.46-28.81,7.56-58.81,15.55-87.63,5.93-21.39-1.92-35.22-24.8-36.35-5.22-.26-10.82-.65-15.53-2.71-34.19-14.94-71.09-14.1-107.02-18.87-2.17-.29-4.32-.85-6.53-.79-8.91.25-18.72.39-23.25,9.21-4.21,8.21,4.31,13.3,8.38,19.1,5.55,7.9,12.02,15.14,18.26,22.49,19.64,23.12,10.04,74.76-32.58,80.04-28.81,3.56-57.34,7.38-86.46,3.11-17.1-2.51-30.88-9.25-40.62-23.75-5.39-8.02-10.15-16.48-16.02-24.14-9.82-12.82-22.66-13.27-29.11,1.31-12.13,27.4-36.9,45.82-48.94,72.96-2.31,5.2-6.55,9.44-11.11,12.89-21.69,16.42-42.6,33.8-63.74,50.9-6.16,0-12.31,0-18.47,0-4.46-6.73-.12-11.71,3.63-16.48,6.01-7.64,13.43-13.85,21.44-19.34,10.51-7.21,20.48-15.15,30.27-23.29,8.84-7.36,16.45-15.68,21.14-26.5,15.64-36.05,37.06-68.74,60.04-100.38,8.86-12.2,14.07-24.73,14.43-39.95.65-27.44,32.11-51.9,59.48-47.18,9.72,1.68,15.58,7.96,19.12,16.39,4.4,10.51,11.96,13.24,22.29,10.57,39.78-10.27,79.16-7.5,118.49,2.9,8.84,2.34,18.08,3.92,27.37,3.48,18.3-.87,35.85,2.39,52.89,8.87,8.74,3.32,17.82,4.21,27.11,4.59,34.06,1.39,50.96,25.1,42.03,58.42-3.97,14.8-12.91,27.82-15.14,43.28-2.85,19.81-6.61,39.49-9.49,59.28-2.17,14.87,5.8,27.84,11.9,40.96,3.53,7.59,9.89,14.95,4.93,24.39Z"/><path class="cls-3" d="M1207.12,244.67v-34.25c-.42-.57-.85-1.13-1.26-1.72-1.85-2.7-5.36-5.18-8.53-5.92-23.01-5.38-42.86-17.6-63.62-28.04-10.53-5.3-22.34-7.35-34.5-7.2-27.7.34-55.4.1-83.1.11-33.09.02-43.4,8.59-48.45,40.47-.54,3.44-.69,7.04-.39,10.51,1.17,13.15-5.62,21.96-16.09,27.97-8.3,4.76-16.99,8.77-26.42,11.58-16.65,4.95-34.83,7.96-46.15,23.33-5.43,7.38-8.63,16.55-14.62,23.33-25.15,28.47-42.64,62.05-63.67,93.26-11.97,17.77-14.52,36.9-11.21,57.77,3.01,18.96,4.44,38.18,6.57,57.28h13.19c5.21-11.46-.53-22.43-1.75-33.53-3.28-29.85-3.82-58.83,17.62-83.52,5.45-6.28,8.9-14.08,12.6-21.58,9.19-18.6,22.89-33.14,40.16-44.42,11-7.18,22.96-10.81,36.24-9.45,21.59,2.2,41.25,8.28,55.85,25.81,8.55,10.26,19.93,11.97,32.4,8.91,22.49-5.51,32.23-22.52,26.41-47.82-5.13-22.3-12.23-43.98-23.24-64.24-4.61-8.48-9.23-17.07-11.04-26.69-3.05-16.14,5.32-26.58,21.66-24.55,23.58,2.92,46.37.54,69.19-5.1,18.9-4.67,37.15-2.37,52.29,10.49,21.24,18.02,47.75,28.02,68.72,46.34.36.32.75.59,1.13.88Z"/><path class="cls-3" d="M1207.12,428.06c-1.03,1.36-2.05,2.75-3.03,4.18-4.49,6.52-10.26,12-15.26,18.08-10.31,12.53-23.23,22.96-31.2,37.31-4.35,7.83-10.18,16.06-3.05,25.52h13.19c6.43-24.54,26.21-40.45,39.35-60.66v-24.43Z"/><path class="cls-3" d="M146.51,513.14c4.04-12.83,14.54-17.26,26.25-18.2,12.76-1.03,22.42-6.54,30.59-15.77,9.93-11.23,20.35-22.15,33.88-28.92,27.95-13.99,38.93-38.37,40.76-67.4.87-13.72,8.11-21.79,18.65-26.08,25.91-10.54,40.79-30.83,52.88-54.36,11.63-22.65-5.09-52.1-30.32-52.95-9.66-.32-19.35.17-29.02-.13-15.71-.49-23.98-5.93-27.72-21.2-4-16.35-10.54-30.47-23.91-41.14-6.49-5.18-6.18-12.69-4-19.42,2.31-7.13,9.74-6.16,14.8-4.97,30.01,7.05,61.3,1.63,91.2,9.95,12.62,3.51,22.58,9.26,27.81,21.78,5.59,13.37,15.57,19.63,30.2,18.16,10.01-1.01,20.1-1.44,30.04-2.89,22.93-3.35,44.1.03,63.71,13.26,18.99,12.81,42.25,10.11,63.27,15.76,47.92,12.9,97.97,12.67,146.42,23,13.04,2.78,27.81-1.19,41.58-3.39,22.68-3.62,27.63,3.11,26.07,20.6-.75,8.46,1.03,17.68,3.82,25.81,8.09,23.58.15,42.41-11.87,62.96-19.19,32.82-27.84,69-15.11,106.93,4.3,12.81,11.91,24.52,12.24,38.59h-5.28c-15.19-26.54-30.05-52.4-22.31-85.77,6.7-28.9,9.49-58.46,25.97-84.55,7.31-11.57-1.33-47.7-11.08-56.85-4.48-4.2-10.03-5.38-15.87-5.12-21.71.99-42.55-4.98-63.76-7.44-41.96-4.87-83.36-11.82-124.51-21.04-8.51-1.91-17.6-1.34-26.28-.06-15.19,2.25-28.01-2.41-38.5-12.84-14.43-14.34-31.19-16.67-49.86-11.56-12.72,3.48-25.25,7.55-37.46,12.56-9.56,3.92-15.24,10.62-13.92,21.31,5.22,42.08-17.83,72.02-43.86,100.08-11.4,12.29-20.67,24.96-23.84,41.51-5.81,30.27-24.28,51.37-49.96,66.19-17.06,9.85-33.15,19.81-41.24,38.84-.81,1.89-3.02,3.14-4.51,4.75h-65.97Z"/><path class="cls-3" d="M1207.12,396.05c-5.88,4.55-10.89,10.27-15.07,17.4-4.67,7.97-11.11,14.67-17.27,21.58-12.57,14.11-25.6,27.77-38.54,41.53-12.1,12.86-14.21,24.8-8.06,36.59h13.19c9.51-21.5,22.36-40.53,40.27-56.08,9.31-8.08,17.05-17.79,24.32-27.69.38-.51.76-1.02,1.14-1.52v-31.81Z"/><path class="cls-3" d="M1164.54,300.13c14.6,3.2,28.54,2.89,42.57.62v-28.8c-11.11,1.01-19.83-4.11-28.04-14.04-5.05-6.1-10.04-12.22-14.85-18.5-8.55-11.16-16.06-23.11-25.59-33.53-12.61-13.8-27.95-20.81-46.15-14.45-18.83,6.58-38.15,10.04-57.61,13.65-22.32,4.13-28.07,14.49-20.32,35.9,5.54,15.28,11.72,30.26,15.24,46.25,10.77,48.88,6.8,58.29-36.51,83.13-22.14,12.7-30,11.12-45.49-9.42-7.28-9.66-15.21-18.68-27.78-20.86-30.56-5.29-62.96,2.84-77.46,35.38-6.65,14.92-14.73,28.85-23.57,42.57-16.92,26.28-16.23,72.31.44,95.1h15.83c4.87-6.87-.1-12.66-2.42-18.46-7.17-17.94-9.84-36.13.57-53.31,11.15-18.39,22.5-36.62,33.32-55.22,10.63-18.26,27.73-21.85,46.59-12.37,7.58,3.81,13.66,9.54,19.62,15.42,12.83,12.66,28.48,20.51,45.37,25.96,12.72,4.11,21.16,1.72,27.23-9.15,8.27-14.83,19.52-26.89,31.08-39.01,16.24-17.03,24.85-36.87,20.56-61.18-2.18-12.33-.82-24.54,5.6-35.77,12.58-22.01,30.29-24.09,46.85-5.43,3.5,3.95,7.48,7.47,10.85,11.51,11.57,13.86,26.58,20.17,44.07,24.01Z"/><path class="cls-3" d="M1119.82,322.78c7.06,7.59,15.76,10.27,26.02,10.51,15.36.36,29.51-3.65,43.46-9.37,5.88-2.41,11.75-4.83,17.82-6.58v-20.85c-7.08,1.97-14.39,3.29-21.84,2.7-32.33-2.56-58.55-15.65-76.84-43.53-7.36-11.22-17.58-12.67-29.68-6.61-20.5,10.25-31.55,31.1-26.53,56.32,4.96,24.94-4.34,43.65-20.78,60.37-10.79,10.98-22.15,21.41-28.29,35.99-5.04,11.96-13.57,13.13-24.8,8.94-18.81-7.01-35.01-17.26-49.41-31.6-25.46-25.36-54.79-20.01-70.7,11.75-6.49,12.97-13.27,25.63-22.32,37.15-9.09,11.58-14.22,24.71-14.12,40.14.1,16.6,9,30.04,13.46,45.03h18.47c3.27-8.04-2.9-13.21-6.08-19.13-11.26-20.95-10.1-34.95,4.87-53.35,9.43-11.59,19.11-22.98,29.14-34.04,9.72-10.7,16.77-11.78,29.22-4.92,23.84,13.15,47.56,26.26,67.55,45.47,16.41,15.76,35.41,10.58,43.96-10.49,2.65-6.53,4.42-13.34,6.1-20.17,3.17-12.94,8.32-24.96,15.95-35.93,13.09-18.8,24.44-38.46,33.08-59.83,8.54-21.12,16.91-22.26,33.84-6.3,2.88,2.71,5.76,5.44,8.45,8.33Z"/><path class="cls-3" d="M1207.12,370.46c-15-1.38-22.92,3.08-25.68,18.09-5.31,28.83-22.92,48.69-44.18,66.52-8.1,6.79-16.33,13.63-21.94,22.63-6.89,11.08-11.93,22.8-2.97,35.43h15.83c-1.07-15.5,4.5-27.84,15.92-38.61,19.46-18.35,38.04-37.77,52.87-60.09,3.16-4.76,6.44-9.12,10.15-12.82v-31.16Z"/><path class="cls-3" d="M1207.12,277.43v-38.44c-2.17-1.51-4.27-3.2-6.33-5.09-5.42-4.97-11.76-9.28-18.34-12.57-11.06-5.53-22.42-11.08-31.19-19.43-22.74-21.64-48.35-26.09-77.7-17.52-18.29,5.34-36.98,6.06-55.91,2.46-18.38-3.5-30.91,8.37-29.24,26.93.72,8.03,3.89,15.3,7.76,22.21,12.54,22.36,21.02,46.24,27.59,70.93,5.72,21.48-.08,36.09-17.37,42.46-16.78,6.18-24.87,4.06-37.04-9.7-24.6-27.83-70.19-31.35-100.26-9.8-31.19,22.35-45.52,56.65-62.01,88.17-15.55,29.71-5.23,63.41,1.78,95.12h10.56c.61-5.89-1.83-11.17-3.25-16.68-7.81-30.47-8.87-59.78,13.38-85.77,6.55-7.66,10.6-17.09,14.04-26.69,10.19-28.51,31.7-40.03,60.84-41.31,21.49-.94,33.66,10.97,44.13,27.4,9.08,14.25,22.35,17.24,37.7,9.49,9-4.55,18.01-9.23,26.48-14.67,19.4-12.47,30.37-28.29,26.24-53.59-4.21-25.77-11.35-50.24-20.83-74.41-6.91-17.61-2.7-23.73,16.21-27.03,19.82-3.46,39.61-6.25,58.65-13.81,16.6-6.6,31.05-.59,43.1,13.73,15.51,18.43,27.54,39.51,44.58,56.85,8.37,8.53,16.49,12.52,26.42,10.79Z"/><path class="cls-3" d="M1207.12,421.08c-15.49,19.08-32.82,36.52-49.72,54.38-9.46,10-17.71,22.15-16.02,37.68h13.19c0-15.08,7.72-26.47,17.32-37.17,11.9-13.27,24.05-26.37,35.23-40.23v-14.65Z"/><path class="cls-3" d="M893.32,513.14c-7.04,0-14.07,0-21.11,0-10.82-5.15-17.79-14.2-23.45-24.2-6.6-11.64-6.16-23.7.49-35.2,15.82-27.37,51.51-40.58,81.31-30.52,16.58,5.6,26.04,18.26,34.72,32.52,14.49,23.82,42.95,24.19,59.4,1.4,1.55-2.14,3.03-4.36,4.01-6.8,7.7-19.11,17.42-37.48,20.57-58.24,2.95-19.4,13.15-35.31,25.86-49.59,11.41-12.81,21.83-14.27,36.2-5.06,15.45,9.91,31.42,18.95,41.75,35.48,19.09,30.54,14.69,55.89-15.97,75.24-20.74,13.09-34.92,30.4-41.96,53.72-1.3,4.29-3.25,8.15-6.55,11.25-14.95,0-29.91,0-44.86,0-10.56-4.84-21.11-4.32-31.67,0h-39.58c-14.19-6.2-19.29-21.13-29.68-31.03-5.67-5.41-9.91-12.31-15.04-18.32-12.52-14.65-34.91-16.1-49.45-3.36-9.07,7.95-9.78,14.13-2.61,23.99,3.63,4.99,8.49,8.91,12.38,13.67,3.54,4.31,8.21,8.41,5.23,15.06Z"/><path class="cls-3" d="M1207.12,312.5c-9.65,2.78-18.78,7.2-28.3,10.49-23.94,8.25-47.04,12.07-64.87-12.44-2.5-3.43-6.28-6.18-9.96-8.45-12.02-7.43-16.95-6.11-25.09,5.43-7.21,10.22-8.71,23.05-15.17,33.42-19.19,30.86-39.1,61-47.15,97.56-3.33,15.15-22.02,19.01-32.8,7.59-20.34-21.54-46.38-34.28-71.07-49.18-13.35-8.05-22.02-7.09-32.81,4.55-12.18,13.16-24.27,26.54-35,40.87-10.26,13.69-13.37,28.91-5.53,45.77,4.12,8.85,10.77,16.02,14.36,25.03h18.47c-4.25-6.65-9.05-12.81-14.45-18.65-10.42-11.27-13.17-28.02-4.91-38.76,14.05-18.25,31.73-32.38,56.18-31.97,23.8.4,40.98,11.78,51.87,33.93,12.45,25.33,42.58,29.5,62,8.65,16.23-17.43,23.31-40.32,28.17-62.72,5.1-23.51,13.75-44.06,30.34-61.34,7.49-7.81,15.61-8.99,24.7-2.92,9.48,6.33,20.16,11.39,28.27,19.14,14.58,13.93,28.53,29.21,25.44,51.93-2.49,18.3-15.62,28.41-30.17,37.4-24.29,15.01-37.66,37.08-41.05,65.31h23.75c-4.13-23.62,8.55-39.46,25.39-52.73,24.42-19.23,44.2-41.08,48.6-73.53,1.09-8.07,6.16-13.72,15.3-12.97,1.83.15,3.65.35,5.48.58v-61.99Z"/><path class="cls-3" d="M1207.12,487.77c-4.38,8.43-8.66,16.91-12.96,25.37h12.96s0-25.37,0-25.37Z"/><path class="cls-3" d="M-17.1-9.71V6.76c5.41,4.34,10.93,1.7,16.28.05C13.99,2.25,28.11-4.16,42.57-9.71H-17.1Z"/><path class="cls-3" d="M212.48,513.14c2.96-17.58,11.94-31.27,28.09-38.88,14.14-6.66,25.76-16.58,37.96-25.85,16.7-12.7,20.98-31.99,25.99-50.54,3.66-13.55,9.09-25.4,19.79-34.85,16.35-14.43,27.17-33.19,38.95-51.16,9.87-15.06,8.46-32.17,7.24-48.65-1.16-15.71,6.04-24.19,19.6-28.45,18.34-5.75,35.9-14.59,55.83-14.42,12.46.11,23.1,3.87,31.83,13.17,10.41,11.09,22.27,16.76,38.66,13.77,15.56-2.84,31.37.15,46.81,4.5,34.29,9.65,70,10.73,104.81,16.85,22.14,3.9,43.83,8.05,66.34,7.21,13.45-.5,19.31,8.69,23.35,19.57,8.7,23.48,11.64,45.64-5.39,68.13-14.49,19.13-11.81,44.39-17.49,66.74-5.24,20.64.21,38.77,9.34,56.89,4.11,8.14,6.24,17.28,9.26,25.97-2.64,0-5.28,0-7.92,0-1.63-4.99-2.24-10.66-5.05-14.86-18.72-27.89-16.09-57.27-10-88.4,4.22-21.6,8.69-42.72,17.29-62.95,2.61-6.14,3.32-12.64,3.08-19.33-.79-22.01-13.32-35.71-35.18-35.71-14.39,0-27.75-2.68-41.05-7.63-11.57-4.31-23.56-6.75-36.09-5.89-14.14.97-28-1.39-41.57-4.97-36.24-9.55-72.45-11-109.09-2.03-19.96,4.88-21.56,3.51-29.89-15.04-5.45-12.14-15.57-15.79-29.62-10.46-4.91,1.86-9.58,4.37-14.48,6.27-19.93,7.73-24.86,14.2-24.46,35.33.31,16.16-5.56,29.01-15.02,42.15-22.77,31.62-45.14,63.75-59.7,100.3-7.46,18.72-23.95,28.6-38.28,40.58-11.06,9.25-24.17,15.9-33.87,26.96-4.12,4.7-8.16,9.19-8.95,15.68-7.04,0-14.07,0-21.11,0Z"/><path class="cls-3" d="M252.07,513.14c6.08-15.78,20.56-23.7,32.85-32.94,20.12-15.14,37.01-31.39,50.41-53.86,11.37-19.06,26.86-36.11,38.15-56.03,8.6-15.16,26.31-13.21,36.31,2.11,5.51,8.45,10.9,16.98,16.11,25.61,7.14,11.83,18.33,17.72,31.21,19.76,31.44,4.98,62.94,2.75,93.93-3.26,32.53-6.31,45.76-45.25,25.27-71.98-7.98-10.41-16.76-20.22-24.79-30.6-8.8-11.38-5.36-20.64,8.44-25.58,10.92-3.91,21.72-2.87,32.34.06,18.07,4.98,36.83-.05,54.89,4.44,24.12,6,47.18,15.73,72.48,17.78,10.5.85,16.96,10.23,17.92,21.66.9,10.69-1.2,20.92-4.35,31.06-9.12,29.39-9.25,60.4-16.22,90.26-2.83,12.11,4.97,23.64,9.88,34.91,3.82,8.76,10.52,16.39,10.74,26.6-2.64,0-5.28,0-7.92,0-17.19-20.86-31.23-43.24-22.24-71.61,9.42-29.73,7.22-60.62,11.34-90.85,1.79-13.08-4.23-20.19-17.6-21.48-18.77-1.81-35.76-8.28-52.77-15.54-14.68-6.26-30.26-4.08-45.53-3.13-6.21.39-9.2,4.62-7.71,11.17,1.08,4.72,2.57,9.33,4.34,13.81,8.89,22.6,4.8,43.96-5.99,64.66-7.76,14.89-20.08,23.35-36.38,27.85-47.96,13.25-96,10.95-144.74,5.05-23.53-2.85-47.53,2.45-65.46,20.3-23.14,23.04-49.35,41.89-76.42,59.79-6.16,0-12.31,0-18.47,0Z"/><path class="cls-3" d="M-17.1,225.67c0-21.1,0-42.2,0-63.3,3.36-7.19,7.7-13.6,13.39-19.29,8.83-8.82,14.51-19.73,18.93-31.31,2.03-5.32,3.78-10.78,6.87-15.63,9.66-15.16,23.18-16.87,36.26-4.44,5.1,4.85,9.51,10.34,13.04,16.46,7.96,13.84,7.29,25.32-5.11,35.22-13.76,11-15.22,24.36-10.09,38.81,6.75,19,8.9,38.26,8.24,58.18-.49,14.89,5.94,28.23,10.9,41.75,4.58,12.47,7.27,25.26,9.15,38.3.69,4.8.99,9.65.1,14.42-1.89,10.21-4.95,20.32-15.81,24.03-11.14,3.8-18.1-4.4-24.48-11.6-7.85-8.86-15.56-17.86-23.09-27.01-14.4-17.49-25.43-35.88-19.72-59.99,4-16.87-7.81-25.51-18.59-34.58Z"/><path class="cls-3" d="M-17.1,499.96c0-68.57,0-137.15,0-205.72,6.88-2.19,10.63,2.92,14.57,6.71,16.18,15.53,28.68,33.84,33.47,55.76,4.23,19.37,10.63,20.44,30.6,19.5,15.81-.74,25.15-9.36,26.74-25.49,1.38-13.97,1.41-28.09-.57-42.08-.8-5.67-1.55-11.34-1.35-17.06,1.21-35.73-7.48-69.59-19.83-102.65-5.48-14.68-3.01-27.26,6.12-39.56,15.87-21.38,15.77-25.4.97-48.05-4.09-6.25-8.08-12.58-12.53-18.58-11.43-15.43-25.52-16.51-38.86-2.55-9.53,9.97-15.33,22.35-21.33,34.64-3.65,7.48-6.36,17.03-18.01,15.89v-34.29c7.9-19.59,22.29-33.52,40.25-43.48,21.11-11.7,42.1-6.24,54.96,13.98,7.99,12.57,15.42,25.55,22.33,38.76,7.91,15.14,8.37,30.8-1.26,45.08-11.08,16.43-9.11,31.95-.37,48.22,5.19,9.66,10.11,19.47,15.67,28.93,9.08,15.45,10.35,31.68,3.66,48.06-7.67,18.76-10.94,37.68-7.1,57.86,1.72,9.02.99,18.36-.38,27.54-3.39,22.69-14.23,38.27-38.64,41.71-12.38,1.74-22.91,8.69-34.13,13.6-11.17,4.89-23.15,7.33-34.99,11.11,2.43,4.67,6.73,5.44,9.55,8.09,5.36,5.03,8.78,10.99,9.28,18.33,1.09,16.07-22.27,43.5-38.8,45.74Z"/><path class="cls-3" d="M270.54,513.14c9.06-13.45,22.17-22.52,35.4-31.02,15.37-9.89,28.09-22.53,40.3-35.71,6.41-6.93,14.37-9.05,22.58-12.22,35.02-13.54,69.96-1.27,104.91-.7,13.13.21,26.22,1.79,39.31-1.4,13.61-3.31,27.35-6.27,41.17-8.48,16.59-2.65,27.77-11.57,35.58-26.14,12.56-23.43,12.11-46.75,1.76-70.76-6.51-15.09-1.62-21.05,15.14-22.06,21.49-1.3,41.92,1.34,61.2,11.53,9.42,4.98,19.72,6.71,30.45,7.25,19.62.98,29.05,11.7,25.72,31.06-5.41,31.42-3.8,63.82-14.42,94.55-4.46,12.9,2.89,24.84,7.66,36.57,3.79,9.33,10.14,17.52,12.41,27.54h-13.19c-18.63-21.86-30.18-44.95-17.29-74.56,8.74-20.07,10.05-41.53,6.73-63.22-2.54-16.57-8.28-22.83-24.66-26.41-10.74-2.35-21.7-3.35-32.46-5.71-15.85-3.49-20.99-.46-24.72,15.18-4.36,18.26-13.03,34.45-22.48,50.33-10.04,16.87-25.03,26.88-44.34,30.07-13.95,2.31-27.44,5.89-40.44,11.51-13.39,5.79-27.43,5.87-41.5,3.39-19.21-3.39-37.76-1.35-55.42,6.72-11.87,5.43-24.02,8.38-37.05,7.51-14.62-.97-26.67,4.43-36.6,14.85-13.18,13.82-27.3,26.13-46.71,30.35-9.68,0-19.35,0-29.03,0Z"/><path class="cls-3" d="M28.88-9.71C13.78-3.55-1.12,3.14-17.1,6.76v23.74c7.16,3.23,12.78-1.24,18.51-4.07C20.78,16.87,40.49,8.77,62.1,5.23c14.4-2.36,23.76-6.89,29.36-14.93H28.88Z"/><path class="cls-3" d="M-17.1,499.96c11.07-9.34,22.43-18.57,29.92-31.14,9.38-15.75,5.02-27.53-11.73-34.51-3.83-1.6-9.95-1.68-9.05-7.49.78-5.02,6.57-3.11,10.12-3.96,17.57-4.21,34.69-9.59,50.51-18.47,5.47-3.07,11.31-5.1,17.36-5.88,29.15-3.75,32.37-17.42,36.47-41.95,1.62-9.72.83-19.96-1.27-30.08-3.38-16.37-.11-32.42,6.8-47.45,8.65-18.83,7-36.24-4.12-53.67-6.82-10.69-12.5-22.2-17.78-33.76-5.94-13.01-6.74-25.72,2.54-38.48,12.5-17.18,11.93-34.87-.45-52.51-5.52-7.86-9.8-16.62-14.24-25.19-14.13-27.32-41.39-32.3-64.13-11.03-10.84,10.13-20.67,21.33-30.96,32.05v-23.74C.11,49.41,21.93,33.55,51.85,32.52c17.47-.6,32.58,6.04,40.17,22.55,8.97,19.52,16.37,39.78,23.87,59.94,4.83,13,1.9,25.96-1.4,38.86-5.75,22.5-1.54,32.01,18.71,43.39,3.45,1.94,7.13,3.45,10.47,5.59,13.29,8.52,17.27,19.71,10.29,33.83-8.98,18.17-15.75,37.23-23.91,55.7-6.98,15.82-9.08,31.89-6.42,48.88,2.54,16.23,1.89,32.42-2.23,48.4-4.48,17.37-14.56,28.73-33.14,31.21-5.22.7-10.48,1.53-15.55,2.89-11.96,3.22-20.31,10.01-21.93,23.28-.74,6.09-1.97,12.14-3.18,18.18-1.77,8.86-5.21,17.14-12.61,22.53-11.35,8.27-21.71,17.85-33.61,25.39-1.76,0-3.58-.3-5.27.05-11.18,2.27-15.57-2.08-13.2-13.23Z"/><path class="cls-3" d="M-17.1,130.72C-1.98,121.94-1.72,103.81,7.65,91.3c7.36-9.82,13.32-20.32,26.05-24.62,11.76-3.98,21.13-.38,27.97,8.52,8.26,10.73,15.1,22.56,22.55,33.91,9,13.7,7.6,27.1-3.65,38.17-15.37,15.13-13.81,29.99-6.34,48.89,8.26,20.89,14.63,43.59,15.99,65.86,1.67,27.42,4.31,54.96,3.62,82.58-.76,30.28-29.53,48.07-56.76,34.65-5.25-2.59-8.13-6.84-8.91-12.23-4.47-30.91-21.87-53.69-45.27-72.8,0-22.86,0-45.72,0-68.57,20.43,3.76,28.12,15.17,23.06,40.16-2.83,14,.59,25.24,7.59,35.99,11.25,17.26,25.24,32.48,39.25,47.49,10.42,11.16,18.93,9.24,24.59-5.09,7.29-18.44,1.7-36.69-4.52-53.75-8.49-23.31-16.08-46.36-13.45-71.57,1.19-11.41-3.84-21.43-7.22-31.8-7.66-23.49-5.42-31.64,12.85-47.91,7.29-6.49,9.49-14.24,5.3-23.69-4.02-9.05-10.46-16.42-17.29-22.91-11.14-10.59-24.71-5.11-30.23,12.57-7.33,23.48-20.42,42.47-39.93,57.21,0-10.55,0-21.1,0-31.65Z"/><path class="cls-3" d="M1.37,513.14c3.1-7.57,7.87-14.46,15.08-17.75,21.21-9.7,27.68-27.48,29.8-48.72,1.73-17.37,11.21-26.74,28.8-28.36,38.24-3.53,40.88-16.95,45.05-50.51,1.91-15.43-3.28-30.47-2.7-45.87.34-8.92,2.04-17.44,5.65-25.5,9.69-21.62,16.5-44.5,28.55-65.07,5.09-8.69.39-15.16-5.09-21.09-3.29-3.56-8.1-4.98-12.54-6.95-25.21-11.18-32.08-25.77-23.85-51.67,5.46-17.19,4.49-33.23-3.97-49.36-5.07-9.66-9.68-19.98-12.04-30.55-9.01-40.39-48.57-41.22-75.16-25.4-12.74,7.58-24.07,17.5-36.05,26.36v-15.82C-.5,50.87,11.52,37.1,28.41,31.1c21.64-7.69,42.79-7.93,64.39-1.26,11.04,3.41,17.05,11.16,16.6,22.47-.77,19.15,1.71,37.42,9.39,55.16,5.55,12.8,4.35,26.74,3.88,40.29-.64,18.46,6.97,30.7,24.45,37.56,19.27,7.56,31.57,21.31,34.99,42.49,1.82,11.29-.38,20.7-11.35,25.03-14.63,5.78-19.96,18.22-26.76,30.74-19.7,36.28-11.85,75.39-13.24,113.54-.6,16.52-9.33,30.5-24.24,35.41-6.13,2.02-12.94,1.86-19.3,3.32-17.31,3.97-23.53,11.29-25.08,28.79-.12,1.31-.03,2.63-.08,3.95-.8,21.77-5.05,41.1-31.66,44.55-9.68,0-19.35,0-29.03,0Z"/><path class="cls-3" d="M460.54,513.14c-36.94,0-73.89,0-110.83,0,.75-13.99,11.12-26.6,26.28-27.43,18.47-1.01,33.41-7.55,47.83-18.75,13.91-10.81,31.21-12.36,47.82-7.54,19.24,5.58,36.07,3.3,52.16-8.69,8.58-6.4,19.26-8.57,29.63-10.3,22.7-3.79,39.41-15.61,51.14-35.29,7.88-13.23,17.9-24.88,28.78-35.8,13.8-13.85,30.67-16.27,48.75-12.69,14.26,2.82,23.9,16.59,25.21,33.17,1.71,21.62-4.03,41.59-12.55,61.05-2.29,5.22-4.98,10.28-6.77,15.7-4.15,12.61-5.55,24.83,4.4,35.84,2.57,2.84,4.93,6.34,3.02,10.73-14.95,0-29.91,0-44.86,0-4.94-4.69-3.85-10.41-2.58-16.04,4.21-18.69,11.12-36.08,24.31-50.49,9.08-9.92,15.85-21.15,17.57-34.76,1.33-10.48-.05-20.65-9.08-27.4-8.71-6.52-17.84-2.55-26.15,1.61-11.13,5.57-20.66,13.36-28.1,23.46-18.37,24.93-39.83,45.46-70.91,54.07-11.91,3.3-19.57,12.79-25.54,23.56-12.34,22.25-16.61,23.83-41.33,16.6-1.27-.37-2.53-.74-3.79-1.14q-18.27-5.76-24.39,10.53Z"/><path class="cls-3" d="M695.4,513.14c-22.25-19.01-17.68-40.23-5.75-62.61,8.94-16.77,15.1-34.39,13.81-54.05-.94-14.25-3.1-28.7-17.75-33.91-15.56-5.53-32.23-5.27-45.78,7.03-12.72,11.54-23.37,24.94-32.42,39.51-12.55,20.19-30,32.43-53.83,36-13.07,1.96-25.23,6.75-36.13,14.87-10.72,7.99-22.76,10.4-36.1,6.26-24.55-7.62-47.59-5.95-66.87,13.31-6.64,6.63-15.28,10.29-23.76,9.4-20.34-2.14-32.25,7.93-41.11,24.2h-50.14c20.43-12.01,37.28-28.54,55.34-43.56,3.54-2.94,8.75-5.86,13.01-5.61,23.37,1.33,44.58-5.49,66.08-13.58,13.42-5.05,28.33-4.99,42.79-1.16,4.59,1.22,9.8,2.1,14.34,1.18,30.71-6.21,62.64-11.42,89.67-26.56,22.6-12.67,31.34-39.46,37.69-64.28,5.67-22.16,10.36-26.04,33.03-20.88,10.21,2.33,20.63,3.71,30.95,5.56,19.29,3.47,27.6,12.45,28.7,31.6,1.27,22.04.67,44.16-8.09,64.68-8.96,20.98-4.72,39.3,7.39,57,3.28,4.79,6.33,9.52,6.04,15.62-7.04,0-14.07,0-21.11,0Z"/><path class="cls-3" d="M86.64-9.71c-4.42,4.62-11.07,7.53-20.36,8.97C36.11,3.95,9.46,16.83-17.1,30.5v13.19c3.61-1.5,7.61-2.42,10.76-4.58C18.07,22.44,44.31,12.13,74.46,11.62c15.31-.25,29.49-4.88,35.64-21.33h-23.46Z"/><path class="cls-3" d="M460.54,513.14c-.81-6.25-5.99-13.11.07-18.59,6.47-5.85,13.08-.46,19.59,1.75,7.88,2.68,15.94,4.86,23.97,7.08,9.15,2.52,14.73-2.92,17.51-10.11,8.56-22.11,25.12-33.39,47.23-39.84,25.04-7.31,39.53-28.22,54.5-47.58,8.61-11.13,19.18-19.2,31.44-25.19,9.65-4.71,20.32-8.29,29.77-.2,9.79,8.38,12.09,20.15,10.16,32.43-2.17,13.77-8.49,25.76-18.11,35.85-17.21,18.05-24.27,40.15-26.12,64.39h-15.83c-5.88-5.72-4.88-12.99-3.71-19.8,3.96-23,12.64-43.71,30.87-59.38,5.01-4.3,9.89-8.71,12.41-15.06,1.69-4.26,2.27-8.48-.64-12.5-3.38-4.67-8.32-4.74-13.09-3.65-8.42,1.94-14.83,7.27-20.52,13.54-19.71,21.74-39,43.88-64.47,59.48-8.42,5.16-14,13.13-16.96,22.74-1.69,5.48-3.73,10.79-8.33,14.63-29.91,0-59.81,0-89.72,0Z"/><path class="cls-3" d="M550.26,513.14c2.29-19.95,11.23-35.61,29.02-45.87,22.48-12.97,38.31-33.22,55.35-51.98,7.9-8.69,15.95-16.6,27.94-18.01,14.61-1.71,22.52,8.96,16.78,22.36-2.02,4.72-4.7,10-8.64,12.93-27.22,20.22-36.63,48.09-36,80.57-6.16,0-12.31,0-18.47,0-2.38-2.09-3.46-4.85-4.49-7.78-5.44-15.44-16.38-18.01-28.25-6.66-4.97,4.76-8.02,11.48-14.76,14.44-6.16,0-12.31,0-18.47,0Z"/><path class="cls-3" d="M893.32,513.14c-3.55-9.45-11.66-15.16-18.2-22.15-14.05-15.01-12.76-26.06,4.36-37.09,19.46-12.54,39.8-8.48,54.04,9.98,12.79,16.57,27.29,31.8,38.97,49.26-26.39,0-52.78,0-79.17,0Z"/><path class="cls-3" d="M568.73,513.14c2.47-4.58,4.45-9.52,7.51-13.66,7.24-9.81,17.11-16.02,29.28-11.82,11.71,4.04,10.89,15.36,10.71,25.48-15.83,0-31.67,0-47.5,0Z"/><path class="cls-3" d="M808.47,114.74c-22.05-11.48-38.87-48.3-34.9-72.85,3.12-19.33,11.91-35.71,21.91-51.6h-235.82c-3.22,24.15,2.2,46.77,9.1,69.58,4.72,15.61,4.24,31.54-1.45,46.57-5.56,14.68-3.86,28.23,1.59,42.2,7.19,18.44,24.76,26.04,42.48,17.39,26.35-12.85,53.2-22.19,83.38-19.84,11.74.91,22.13,5.15,33.12,7.92,19.48,4.91,42.53-3.54,58.31,15.65.94,1.15,4.24.65,6.41.46,13.18-1.13,25.95-3.98,38.03-9.53,9.97-4.58,11.75-11.62,7.63-21.6-5.65-13.69-18.21-18.33-29.79-24.36Z"/><path class="cls-3" d="M877.05-9.71c22.98,22.28,40.27,47.97,38.06,85.26-.81,13.61,3.11,30.13,19.02,36.3,13.41,5.2,27.6,7.39,42.55,4.09,24.67-5.44,49.31-13.79,75.12-6.2,13.05,3.84,25.97,8.2,39.15,11.51,22.29,5.6,30.46.89,37.91-20.39,2.76-7.86,5.87-15.6,8.89-23.38,3.78-9.77,10.05-18.28,19.18-22.72,18.81-9.15,31.28-23.37,39.72-42.09,2.58-5.72,6.15-10.37,10.48-13.87v-8.53s-330.06,0-330.06,0Z"/><path class="cls-3" d="M898.81,70.66c2.16-33.8-13.97-58.82-36.81-80.37h-53.68c-.41.47-.82.95-1.22,1.45-8.79,10.87-16.75,22.49-20.76,36.33-8.34,28.74,1.53,51.71,28.02,65.92,16.23,8.7,32.67,17.59,43.71,32.95,5.14,7.15,11.4,11.87,19.06,15.5,15.62,7.41,29.55-1.4,29.43-12.92-.81-23.77-8.9-40.86-7.75-58.87Z"/><path class="cls-3" d="M697.99,199.36c-.09,10.76-8.3,18.94-18.51,16.73-12.74-2.75-25.26-6.69-37.64-10.83-8.96-2.99-10.51-8.82-5.57-17.32,7.81-13.44,24.06-21.26,38.66-17.57,15.3,3.86,23.18,13.77,23.05,28.99Z"/><path class="cls-3" d="M204.99,315.61c5.99,1.09,11.28,3.03,10.9,9.46-.32,5.38-3.77,10.4-9.64,10.59-5.79.18-11.42-2.35-11.86-9.39-.46-7.45,5.89-8.55,10.6-10.66Z"/><path class="cls-3" d="M457.61-9.71h-233.79c6.88,7.23,12.49,15.03,15.77,24.92,11.42,34.36,22.19,42.06,59.09,41.47,16.7-.27,32.18,3.32,47.09,10.15,12.17,5.57,22.56,4.13,32.49-5.35,19.19-18.32,35.15-17.21,52.01,2.84,9.92,11.79,23.21,10.61,29.35-3.4,4.72-10.78,7.88-22.09,4.59-34.4-3.18-11.9-5.83-23.8-6.59-36.22Z"/><path class="cls-3" d="M527.07,405c-21.2-2.65-42.34-5.28-63.78-6.27-15.3-.71-25.2-14.97-26.14-34.55-.46-9.6-2.62-18.14-7.5-26.07-8.26-13.42,1.54-21.56,9.14-29.54,7.36-7.73,17.2-7.92,24.7-.62,10.72,10.44,23.9,11.21,37.27,12.73,22.64,2.57,41.91,12.69,57.85,28.42,9.87,9.74,16.72,21.27,10.67,36.58-6.36,16.09-20.34,17.44-34.31,19.28-2.59.34-5.26.05-7.89.05Z"/><path class="cls-3" d="M307.24,228.3c-20.6.03-25.84-3.79-26.14-17.7-.35-16.19,9.25-26.55,25.26-27.09,5.24-.18,10.52-.29,15.74.1,10.42.78,17.03,6.56,19.26,16.66,2.38,10.77-1.51,18.87-11.77,23.48-7.68,3.44-15.64,5.63-22.35,4.56Z"/><path class="cls-3" d="M1131.77,408.91c-.48,5.83-3.67,10.16-11.68,8.71-10.07-1.82-32.88-25.16-34.76-35.67-.89-4.99.24-9.72,4.57-12.86,3.62-2.62,7.46-4.08,12.27-2.14,9.16,3.7,29.05,30.51,29.59,41.96Z"/><path class="cls-3" d="M1066.81,474.38c-2.77-.23-4.11-1.84-3.59-4.32.87-4.09,3.15-7.31,7.59-7.94,1.99-.28,3.27,1.42,2.81,3.36-.93,3.93-2.89,7.25-6.81,8.89Z"/><path class="cls-3" d="M1207.12,330.12c-3.18,2.1-5.42,5.03-6.72,8.88-2.48,7.3,1.6,11.57,6.72,14.98v-23.86Z"/><path class="cls-3" d="M763.77,61.33c-.69-28.04,9.11-50.18,20.58-71.03h-211.97c-2.45,10.18-4.52,20.4-2.05,31.6,6.84,31.06,17.64,61.47,14.7,94.34-1.15,12.81,10.88,22.56,24.45,22.21,12.22-.31,24.38-2.3,36.6-3.18,27.77-2,55.31-8.62,83.4-.15,21.81,6.58,45.66-16.75,38.88-38.85-3.78-12.33-5.35-25.72-4.59-34.95Z"/><path class="cls-3" d="M890.57-9.71c11.69,12.88,21.93,27.06,32.2,41.2,8.03,11.07,10.74,23.42,10.35,37.2-.68,24.22,15.94,37.96,39.49,31.32,31.59-8.91,62.21-6.57,93.34,1.7,35.5,9.43,42.1,5.87,58.73-27.28.99-1.96,2-3.92,2.95-5.9,6.33-13.14,14.34-24.58,26.16-33.92,10.54-8.32,20.37-17.98,26.44-30.7,2.47-5.18,5.31-9.74,8.53-13.63h-298.19Z"/><path class="cls-3" d="M842.25-9.71h-16.38c-2.77.98-5.43,2.5-7.92,4.63-14.03,12.04-25.22,26.76-25.03,46.9.09,17.3.85,21.9,13.77,32.24,19.17,15.34,42.36,24.18,63.77,35.88,8.45,4.62,13.23-2.03,14.58-9.76,6.27-35.99,2.06-69.38-24.21-97.52-5.65-6.05-12.08-10.34-18.58-12.38Z"/><path class="cls-3" d="M265.25-9.71c.75,3.08,1.5,6.16,2.27,9.24,6.98,27.89,14.26,33.62,43.03,33.62,27.59,0,32.17-1.63,75.59-23.36,9.43-4.72,15.67-11.27,18.88-19.5h-139.77Z"/><path class="cls-3" d="M586.61-9.71c-3.93,9.3-5.64,19.45-4.2,30.58,2.97,22.98,8.71,45.99,19.3,66.72,9.69,18.96,25.96,29.09,48.7,30.37,25.33,1.43,49.57-6.97,74.61-5.61,12.99.71,19.85-5.11,21.5-17.64,2.39-18.19,5.81-36.21,8.08-54.44,2.21-17.73,9.56-33.82,16.85-49.97h-184.83Z"/><path class="cls-3" d="M903.05-9.71c14.81,16.59,29.08,33.68,45.05,49.23,5.53,5.38,10.3,12.32,13.22,19.44,4.3,10.47,12.09,14.76,22.15,15.82,27.1,2.85,53.51,9.04,79.95,15.29,25.95,6.13,36.55.8,50.06-22.13,12.2-20.7,21.72-43.2,40.55-59.53,6.2-5.38,11.6-11.63,16.8-18.12h-267.78Z"/><path class="cls-3" d="M874.27,60.03c-.31,18.26-10,25.84-29.48,20.28-17.79-5.08-35.47-10.93-41.72-31.67-4.86-16.1,8.96-42.4,25.06-46.69,9.96-2.65,18.21,1.68,24.92,8.35,13.26,13.19,19.14,29.91,21.22,49.73Z"/><path class="cls-3" d="M282.95-9.71c.52,3.68,1.05,7.35,1.63,11.02,1.78,11.17,10.59,17.86,22.66,18.61,28.23,1.76,48.19-13.72,67.85-29.63h-92.14Z"/><path class="cls-3" d="M918.79-9.71c38.19,43.37,84.32,73.43,142.27,85.61,17.09,3.59,29.37-1.52,39.2-14.24,7.8-10.08,13.54-21.55,17.69-33.67,5.15-15.02,11.96-28.67,25.36-37.7h-224.52Z"/><path class="cls-3" d="M699.13-9.71c-2.76,2.19-5.54,4.36-8.4,6.41-21.26,15.22-34.68,21.26-53.73,3.73-2.18-2.01-5.26-3.15-8.06-4.38-11.78-5.18-20.19-1.34-25.48,10.14-5.43,11.79-1.83,23.28-.21,34.81,5.41,38.41,28.22,58.09,66.73,58.06,3.07-.01,6.15.13,9.21-.04,24.86-1.37,54.72-23.46,58.08-44.5,3.47-21.78,5.7-43.65,14.69-64.23h-52.84Z"/><path class="cls-3" d="M856.28,48.11c-.01,5.51-2.51,10.66-9.24,13.09-10.17,3.68-26.49-3.72-31.05-14.07-4.58-10.4,1.2-24.66,11.95-30.11,4.39-2.23,7.97-2.12,12.13.82,7.84,5.52,15.88,19.31,16.2,30.27Z"/><path class="cls-3" d="M304.96-9.71c3.74,10.62,13.14,12.88,24.98,6.27,3.35-1.87,6.54-4.03,9.69-6.27h-34.67Z"/><path class="cls-3" d="M932.55-9.71c4.62,5.42,9.45,10.57,14.9,14.98,31.6,25.57,68.17,42.79,107.42,53.79,19.44,5.45,34.94-1.5,44.96-19.48,3.66-6.57,5.54-13.75,7.59-20.95,2.73-9.61,4.82-20.05,10.1-28.35h-184.97Z"/><path class="cls-3" d="M676.5,75.4c-14.58.23-27.44-4.29-38.48-13.91-4.66-4.06-7.31-8.93-5.29-15.13,1.87-5.75,6.57-7.29,12.24-8.18,16.22-2.54,31.04-9.26,45.26-17.12,8.47-4.68,15.77-4.36,22.83,2.14,7.39,6.81,10.59,14.46,6.92,24.72-6.02,16.85-22.22,27.43-43.47,27.48Z"/><path class="cls-3" d="M950.12-9.71c2.65,5.09,7.88,8.51,12.82,11.86,28.83,19.57,61.69,29.4,94.73,38.17,20.58,5.46,32.17-3.85,36.33-25.26,1.66-8.51,3.34-17.01,6.64-24.78h-150.53Z"/><path class="cls-3" d="M976.96-9.71c1.77,1.2,3.68,2.24,5.77,3.08,22.93,9.15,46.56,14.94,71.39,16.21,12.42.64,18.74-4.63,21.77-16.05.29-1.09.6-2.17.93-3.24h-99.85Z"/></g><rect class="cls-4" x="0" y="0" width="1200" height="500"/></svg>