<?xml version="1.0" encoding="UTF-8"?>
<svg version="1.1" xmlns="http://www.w3.org/2000/svg" width="1080" height="1080">
<path d="M0 0 C0 0.66 0 1.32 0 2 C-0.58152832 2.10957031 -1.16305664 2.21914063 -1.76220703 2.33203125 C-44.9263949 10.64225642 -82.25074771 31.51221054 -109.68701172 66.33642578 C-110.60553326 67.50020521 -111.52949815 68.6596997 -112.45751953 69.81591797 C-169.97491899 141.6082388 -191.3538039 239.71941962 -208.84692383 368.88476562 C-208.95604347 369.97486687 -208.95604347 369.97486687 -209.06736755 371.08699036 C-209.259051 373.02268802 -209.44494625 374.95895646 -209.63037109 376.89526367 C-209.92414559 379.36285304 -210.31209099 381.61965748 -211 384 C-213.75006608 384.0270203 -216.49986546 384.04684883 -219.25 384.0625 C-220.02730469 384.07087891 -220.80460938 384.07925781 -221.60546875 384.08789062 C-222.73662109 384.09272461 -222.73662109 384.09272461 -223.890625 384.09765625 C-224.92751465 384.10551147 -224.92751465 384.10551147 -225.98535156 384.11352539 C-228.09973898 383.99437971 -229.96641515 383.57618237 -232 383 C-236.84280927 341.68258674 -239.27703922 300.63580957 -239.31007385 259.04273605 C-239.31245869 256.48186223 -239.31777241 253.9210065 -239.32336426 251.36013794 C-239.36723805 223.92275464 -238.4452565 196.64664021 -235.1875 169.375 C-235.10351959 168.66083923 -235.01953918 167.94667847 -234.93301392 167.21087646 C-227.86063824 107.40696595 -212.92310825 41.39451284 -172 -5 C-171.37867188 -5.70511719 -170.75734375 -6.41023438 -170.1171875 -7.13671875 C-125.62792282 -54.51127047 -45.97109259 -34.3926803 0 0 Z " fill="#FFFFFF" transform="translate(756,50)"/>
<path d="M0 0 C3.42564313 2.90703882 6.71672353 5.93446263 10 9 C11.39112536 10.21375054 12.78671325 11.42241253 14.1875 12.625 C21.62220528 19.13780183 27.82498277 26.28649725 34 34 C34.77601563 34.94359375 35.55203125 35.8871875 36.3515625 36.859375 C37.44597656 38.19742188 37.44597656 38.19742188 38.5625 39.5625 C39.22378906 40.36816406 39.88507813 41.17382812 40.56640625 42.00390625 C42 44 42 44 42 46 C41.30664551 45.90912109 40.61329102 45.81824219 39.89892578 45.72460938 C-17.15651854 38.3674848 -66.26312615 53.44927624 -111.93579102 88.44067383 C-117.32058152 92.65769653 -122.49870667 97.09335088 -127.5234375 101.734375 C-128.89233295 102.98667683 -130.2694282 104.23078729 -131.6784668 105.43774414 C-137.24264884 110.20491957 -142.45136492 115.29816577 -147.6184082 120.48803711 C-149.06025221 121.93524385 -150.50737116 123.37702026 -151.95507812 124.81835938 C-157.18248512 130.04168193 -162.22060824 135.36314984 -167 141 C-167.87703553 142.00960883 -168.75460329 143.01875568 -169.6328125 144.02734375 C-176.54146915 152.09466226 -183.03380121 160.43045999 -189.42089844 168.91503906 C-190.86190688 170.81766926 -192.3208704 172.70425885 -193.7890625 174.5859375 C-209.28594906 194.60549699 -223.01423577 216.2891069 -236 238 C-236.55316895 238.92377441 -237.10633789 239.84754883 -237.67626953 240.79931641 C-244.38291729 252.0463137 -250.84671216 263.41189007 -257.0625 274.9375 C-257.64032227 276.00468262 -258.21814453 277.07186523 -258.81347656 278.17138672 C-261.79969164 283.73264704 -264.66310496 289.32673145 -267.3828125 295.0234375 C-267.93831787 296.16176025 -268.49382324 297.30008301 -269.06616211 298.47290039 C-270.114635 300.63252404 -271.13575598 302.80573647 -272.12329102 304.99389648 C-275.37114201 311.62677004 -278.35254383 314.52648826 -285.30004883 317.13305664 C-286.19103271 317.41914795 -287.0820166 317.70523926 -288 318 C-289.06287231 318.36822876 -289.06287231 318.36822876 -290.1472168 318.74389648 C-291.91351017 319.32457373 -293.70663944 319.82174931 -295.5 320.3125 C-296.6653125 320.63863281 -297.830625 320.96476562 -299.03125 321.30078125 C-302 322 -302 322 -305 322 C-304.4388233 315.97633306 -303.50187492 310.35510307 -301.91796875 304.5234375 C-301.70808319 303.73249695 -301.49819763 302.9415564 -301.2819519 302.12664795 C-300.59201924 299.54047619 -299.89085292 296.95755211 -299.1875 294.375 C-298.82360672 293.02943024 -298.82360672 293.02943024 -298.45236206 291.65667725 C-283.39634672 236.08079814 -264.60589936 182.08506917 -240 130 C-239.5040332 128.95005859 -239.00806641 127.90011719 -238.49707031 126.81835938 C-231.46928886 112.07428044 -223.42796155 97.98385289 -215 84 C-214.53706543 83.22897949 -214.07413086 82.45795898 -213.59716797 81.66357422 C-202.19032768 62.75302997 -189.30238497 44.64295305 -174.26171875 28.4453125 C-172.3095112 26.3346356 -170.42693722 24.18772443 -168.5625 22 C-160.79267621 13.10200507 -152.28982178 5.28018686 -143 -2 C-141.98035156 -2.825 -140.96070313 -3.65 -139.91015625 -4.5 C-96.10836722 -39.5990035 -42.87181531 -33.97160491 0 0 Z " fill="#FFFFFF" transform="translate(868,109)"/>
<path d="M0 0 C0.82912399 -0.00961258 1.65824799 -0.01922516 2.51249695 -0.02912903 C5.18806104 -0.05376509 7.86339825 -0.06638424 10.5390625 -0.07421875 C11.45058075 -0.07750183 12.362099 -0.08078491 13.30123901 -0.08416748 C31.38144959 -0.10521661 48.62684221 1.65257701 66.1640625 6.23828125 C66.1640625 6.89828125 66.1640625 7.55828125 66.1640625 8.23828125 C63.68864782 9.74865184 61.20497371 11.15851612 58.6640625 12.55078125 C16.42292829 36.6226843 -8.17590642 79.52718355 -20.8359375 125.23828125 C-25.91070373 144.31240261 -28.83277852 163.62797996 -30.8359375 183.23828125 C-30.9405127 184.26034668 -31.04508789 185.28241211 -31.15283203 186.33544922 C-32.22519469 198.76833365 -32.07984335 211.26922698 -32.0859375 223.73828125 C-32.08661224 224.98059509 -32.08728699 226.22290894 -32.08798218 227.50286865 C-32.06960865 248.8920612 -31.22513727 269.98571931 -28.8359375 291.23828125 C-28.7534375 291.98632019 -28.6709375 292.73435913 -28.5859375 293.50506592 C-23.72382777 337.38209987 -15.68585248 381.18163766 -4.3449707 423.85327148 C-3.8359375 426.23828125 -3.8359375 426.23828125 -3.8359375 430.23828125 C-14.5690231 428.10386082 -25.66794786 424.35027435 -34.8359375 418.23828125 C-36.20776367 415.78442383 -36.20776367 415.78442383 -37.62890625 412.6328125 C-38.16845947 411.44212158 -38.7080127 410.25143066 -39.26391602 409.0246582 C-39.85126912 407.70040743 -40.43774812 406.37576869 -41.0234375 405.05078125 C-41.32595428 404.37268402 -41.62847107 403.69458679 -41.94015503 402.99594116 C-74.2928789 330.44559172 -102.27445869 253.51158693 -99.20703125 63.59765625 C-89.43914891 39.1865489 -71.87495301 20.86262755 -47.86181641 10.10205078 C-32.70123299 3.63806619 -16.46128791 0.16093423 0 0 Z " fill="#FFFFFF" transform="translate(509.8359375,-0.23828125)"/>
<path d="M0 0 C-1.69694107 3.98878677 -4.41117056 7.1122907 -7.125 10.4375 C-12.34222453 16.97587556 -16.89563058 23.69676122 -21 31 C-21.32564941 31.57347168 -21.65129883 32.14694336 -21.98681641 32.73779297 C-51.21923801 84.97417775 -45.06611128 148.83378468 -29.8125 204.3125 C-22.91081907 228.50156441 -14.2967863 252.05535681 -4 275 C-3.26209229 276.65298096 -3.26209229 276.65298096 -2.50927734 278.33935547 C10.07092821 306.37260176 23.64190833 334.98552729 40.73706055 360.60302734 C41.15383057 361.39402832 41.57060059 362.1850293 42 363 C41.67 363.99 41.34 364.98 41 366 C40.30777344 365.6282666 39.61554688 365.2565332 38.90234375 364.87353516 C21.02089364 355.31732541 3.03796564 346.14635027 -16.328125 339.92578125 C-17.36291992 339.5891748 -18.39771484 339.25256836 -19.46386719 338.90576172 C-21.41399231 338.28384179 -23.37274717 337.68803652 -25.34082031 337.12548828 C-32.67930087 334.81206891 -36.41337894 331.06883802 -41 325 C-41.57363281 324.26257568 -42.14726562 323.52515137 -42.73828125 322.76538086 C-44.44373237 320.53390095 -46.10247874 318.27453255 -47.75 316 C-48.34997803 315.17749756 -48.94995605 314.35499512 -49.56811523 313.50756836 C-51.3853156 311.00972729 -53.19398051 308.50593363 -55 306 C-55.52674316 305.27184082 -56.05348633 304.54368164 -56.59619141 303.79345703 C-75.19851886 278.01842655 -92.17281309 250.85483224 -105.95068359 222.17724609 C-106.67268707 220.67914767 -107.40264792 219.18486665 -108.13916016 217.69384766 C-127.97041357 177.39005182 -144.94152295 125.10077605 -131.31640625 80.60546875 C-120.85339959 51.94862856 -98.90862281 32.14669896 -72 19 C-50.50115931 9.0805896 -23.95396314 0 0 0 Z " fill="#FFFFFF" transform="translate(392,26)"/>
<path d="M0 0 C15.82952343 14.1679848 27.76899174 29.71422533 37.75390625 48.46484375 C38.07278809 49.04427734 38.39166992 49.62371094 38.72021484 50.22070312 C46.15278602 63.76400718 53.01563108 79.21759062 55.75390625 94.46484375 C52.64994907 93.35060271 49.81541962 91.9826544 46.953125 90.36328125 C25.61359638 78.34961533 1.44365723 70.49926594 -23.20703125 70.2265625 C-23.94637405 70.21672333 -24.68571686 70.20688416 -25.44746399 70.19674683 C-88.973788 69.5271447 -153.2326024 93.76853866 -204.58203125 131.01171875 C-218.68448256 141.15453439 -230.64122271 146.69233528 -247.96923828 149.79248047 C-275.18771064 155.37731677 -301.39764367 168.72056713 -325.31445312 182.44018555 C-327.24609375 183.46484375 -327.24609375 183.46484375 -330.24609375 184.46484375 C-328.70947399 179.65495112 -325.97592544 176.35103215 -322.80859375 172.52734375 C-321.719418 171.19062057 -320.63089088 169.85336866 -319.54296875 168.515625 C-318.99189453 167.84096191 -318.44082031 167.16629883 -317.87304688 166.47119141 C-315.39574496 163.41619934 -312.9777047 160.31595873 -310.55859375 157.21484375 C-300.22979759 144.03047157 -289.54870933 131.11661849 -278.28515625 118.71875 C-276.45523128 116.69601685 -274.65727647 114.6511494 -272.87109375 112.58984375 C-263.82657271 102.24272618 -254.34104342 92.39913633 -244.61108398 82.69946289 C-242.54749314 80.64127218 -240.489357 78.57773395 -238.43164062 76.51367188 C-237.09537285 75.17806441 -235.75879518 73.84276691 -234.421875 72.5078125 C-233.81958572 71.90349899 -233.21729645 71.29918549 -232.59675598 70.67655945 C-228.30729192 66.41022675 -223.826425 62.41501308 -219.24609375 58.46484375 C-218.0895829 57.44317273 -216.93438572 56.42001017 -215.78125 55.39453125 C-207.28006568 47.89198369 -198.51267707 40.84752969 -189.41552734 34.08105469 C-187.98720515 33.0169659 -186.56292278 31.94742938 -185.14306641 30.87207031 C-168.05431506 17.9350934 -149.63891698 6.37678052 -130.16943359 -2.64355469 C-128.8377451 -3.26088477 -127.51017776 -3.88715399 -126.18603516 -4.52050781 C-85.06064325 -24.17733745 -37.57773889 -31.42536431 0 0 Z " fill="#FFFFFF" transform="translate(964.24609375,210.53515625)"/>
<path d="M0 0 C0.99 0.495 0.99 0.495 2 1 C1.71334473 1.7892688 1.71334473 1.7892688 1.42089844 2.59448242 C-4.66949355 19.56293014 -9.40098765 36.87336534 -10 55 C-10.03996094 55.9590625 -10.07992187 56.918125 -10.12109375 57.90625 C-11.48728962 121.55490451 23.89304792 181.40017527 64.01123047 228.30834961 C68.12212217 233.11521454 72.08582007 238.03157104 76 243 C75.67 243.66 75.34 244.32 75 245 C71.9876552 245.38261638 69.02511119 245.65662444 66 245.875 C45.87420372 247.63537847 27.81016009 253.40159128 10.20703125 263.265625 C7.50407166 264.72739608 4.87766142 265.93781236 2 267 C0.7315625 265.82244141 0.7315625 265.82244141 -0.5625 264.62109375 C-1.70828013 263.55983839 -2.85411651 262.49864376 -4 261.4375 C-4.55300781 260.92380859 -5.10601562 260.41011719 -5.67578125 259.88085938 C-8.67924143 257.10179565 -11.71412155 254.37548722 -14.81640625 251.70703125 C-19.72717216 247.42710897 -24.33496896 242.85688702 -28.9375 238.25 C-29.8248584 237.36183594 -30.7122168 236.47367188 -31.62646484 235.55859375 C-37.5048554 229.6248184 -42.88631138 223.60301138 -48 217 C-49.60078117 215.12210881 -51.20516285 213.24728283 -52.8125 211.375 C-63.4841372 198.53594501 -72.33779099 184.81796071 -80 170 C-80.5571167 168.94063232 -80.5571167 168.94063232 -81.12548828 167.85986328 C-93.540054 144.03074803 -98.15685456 117.05353228 -90.39794922 90.9765625 C-83.00536149 67.85188358 -67.7305592 47.28835378 -49 32 C-48.49404297 31.57638184 -47.98808594 31.15276367 -47.46679688 30.71630859 C-35.0178148 20.30046969 -21.85367543 11.44958003 -7.5625 3.75 C-6.83434082 3.35466064 -6.10618164 2.95932129 -5.35595703 2.55200195 C-3.6038645 1.63484842 -1.80506576 0.80792107 0 0 Z " fill="#FFFFFF" transform="translate(224,108)"/>
<path d="M0 0 C0.86769012 -0.00794586 1.73538025 -0.01589172 2.62936401 -0.02407837 C32.73719811 -0.2360276 59.74379516 7.40690843 81.875 28.8125 C86.5690552 33.66145229 90.47623355 38.66838623 94.0625 44.375 C94.62324219 45.21804688 95.18398437 46.06109375 95.76171875 46.9296875 C113.8286572 75.59318985 123.45118694 122.21475071 116.0625 155.375 C112.893087 152.25754459 109.84563542 149.06986193 106.86621094 145.77099609 C76.39580209 112.13781069 35.42937368 96.09660189 -8.9375 90.375 C-9.6446666 90.2814473 -10.35183319 90.18789459 -11.08042908 90.09150696 C-17.77435413 89.30112924 -24.25093898 89.45759359 -30.97265625 89.76953125 C-33.26876003 89.84058462 -35.56499434 89.90751837 -37.86132812 89.97070312 C-41.44154114 90.06935395 -45.01434262 90.18825375 -48.59106445 90.3762207 C-68.03383505 91.36176206 -68.03383505 91.36176206 -72.84814453 88.06768799 C-76.31223882 84.36552734 -78.05013408 80.02060025 -79.9375 75.375 C-92.651345 56.58756962 -111.5900257 44.34692726 -131.9375 35.375 C-133.94339806 34.38688412 -135.94544547 33.39073557 -137.9375 32.375 C-134.54065509 29.47345013 -130.83953161 28.01651176 -126.69140625 26.51953125 C-125.97675705 26.25673874 -125.26210785 25.99394623 -124.52580261 25.72319031 C-122.18721932 24.86837044 -119.84433237 24.02641665 -117.5 23.1875 C-116.69639038 22.89842773 -115.89278076 22.60935547 -115.06481934 22.31152344 C-92.18569437 14.1111365 -68.88956927 7.61779703 -44.9375 3.375 C-44.04514648 3.21128906 -43.15279297 3.04757812 -42.23339844 2.87890625 C-28.20731566 0.40401596 -14.20406536 0.06836923 0 0 Z " fill="#FFFFFF" transform="translate(954.9375,327.625)"/>
<path d="M0 0 C3.50827915 1.52079073 5.95271646 3.5995673 8.75 6.1875 C11.72763441 8.92980524 14.72652703 11.63141156 17.79296875 14.2734375 C22.23406667 18.14855412 26.40736705 22.25980525 30.5625 26.4375 C31.27857422 27.14970703 31.99464844 27.86191406 32.73242188 28.59570312 C37.36068114 33.23238506 41.76135402 38.00528139 46 43 C46.52343994 43.61673584 47.04687988 44.23347168 47.58618164 44.86889648 C55.6825999 54.50397755 63.1505909 64.44149568 70 75 C70.3913916 75.60102539 70.7827832 76.20205078 71.18603516 76.82128906 C88.23093476 103.30007217 99.88453944 133.28440079 93.47827148 165.0949707 C86.99156362 193.89738322 67.99913322 218.18761493 45 236 C44.21367188 236.65226563 43.42734375 237.30453125 42.6171875 237.9765625 C32.55572915 246.31130193 21.59752638 253.24855538 10.25 259.6875 C9.47527344 260.13399902 8.70054687 260.58049805 7.90234375 261.04052734 C7.17660156 261.44352051 6.45085938 261.84651367 5.703125 262.26171875 C5.06020508 262.62225342 4.41728516 262.98278809 3.75488281 263.35424805 C2 264 2 264 -1 263 C-0.80365967 262.43716309 -0.60731934 261.87432617 -0.4050293 261.29443359 C17.32169486 210.17187382 11.79191675 161.05434418 -11.73876953 112.54199219 C-18.47943249 98.95628125 -25.91034154 86.05887589 -34.71948242 73.69946289 C-35.29287354 72.87824951 -35.86626465 72.05703613 -36.45703125 71.2109375 C-37.2301062 70.13271729 -37.2301062 70.13271729 -38.01879883 69.03271484 C-39 67 -39 67 -38.8503418 65.04272461 C-37.79707105 62.51251607 -36.46081488 60.38588673 -34.9375 58.10546875 C-34.31012939 57.15784668 -33.68275879 56.21022461 -33.03637695 55.23388672 C-32.36437256 54.2285791 -31.69236816 53.22327148 -31 52.1875 C-21.58219081 37.91634807 -12.96711701 23.31128568 -4.50390625 8.45703125 C-4.06892822 7.69366455 -3.6339502 6.93029785 -3.18579102 6.14379883 C-2.06664593 4.12048958 -1.01728478 2.07608537 0 0 Z " fill="#FFFFFF" transform="translate(855,707)"/>
<path d="M0 0 C41.7867852 7.16828688 96.19293306 44.21471266 121.3125 78.875 C136.4980517 100.60031483 142.29233271 126.23978256 137.9375 152.375 C134.90469626 168.5029626 128.86028935 183.66473033 121 198 C120.36714339 199.19008071 119.73433026 200.38018454 119.1015625 201.5703125 C111.87144108 214.76159525 102.69509278 226.5338639 93 238 C92.32582031 238.80953125 91.65164063 239.6190625 90.95703125 240.453125 C90.33183594 241.19046875 89.70664062 241.9278125 89.0625 242.6875 C88.24458984 243.65236328 88.24458984 243.65236328 87.41015625 244.63671875 C86 246 86 246 84 246 C83.94392578 244.18242188 83.94392578 244.18242188 83.88671875 242.328125 C81.8201461 185.85888489 56.83639105 140.47286202 16 102.25 C7.98220733 94.86639564 -0.55571963 88.18278992 -9.40234375 81.82421875 C-10.13662598 81.29062744 -10.8709082 80.75703613 -11.62744141 80.20727539 C-13.05414587 79.17415007 -14.48974717 78.15317045 -15.93505859 77.14624023 C-16.90499756 76.44349976 -16.90499756 76.44349976 -17.89453125 75.7265625 C-18.47050049 75.32002441 -19.04646973 74.91348633 -19.63989258 74.49462891 C-21.5514766 72.39397958 -21.77658689 70.80899519 -22 68 C-21.43017578 65.68945312 -21.43017578 65.68945312 -20.4453125 63.28125 C-20.08203857 62.36335693 -19.71876465 61.44546387 -19.34448242 60.49975586 C-18.94205322 59.50983643 -18.53962402 58.51991699 -18.125 57.5 C-10.81006426 38.79050587 -4.81762056 19.50630982 0 0 Z " fill="#FFFFFF" transform="translate(899,591)"/>
<path d="M0 0 C3.51136182 3.45472695 6.83919905 7.01426879 10.125 10.6875 C38.16558807 41.47660686 76.28052234 57.86553173 117 64 C118.13574463 64.18095215 119.27148926 64.3619043 120.44165039 64.54833984 C134.28200653 66.4872732 148.11375708 66.22233176 162.0625 66.125 C164.58658497 66.11494582 167.11067384 66.1058243 169.63476562 66.09765625 C175.75659685 66.07584599 181.87827968 66.04256322 188 66 C191.90900445 73.68905726 195.59796542 81.44214767 199.125 89.3125 C202.98620732 97.82895866 207.04944845 106.20947185 211.375 114.5 C211.86242676 115.43626221 212.34985352 116.37252441 212.85205078 117.3371582 C215.39565649 122.15830026 218.05537142 126.8049251 221.10400391 131.32617188 C222 133 222 133 222 136 C197.66817136 144.74882145 172.64609976 150.68135085 147 154 C146.34197388 154.08588379 145.68394775 154.17176758 145.00598145 154.26025391 C139.42856848 154.94062696 133.92840397 155.17473875 128.3125 155.203125 C127.41112305 155.20882507 126.50974609 155.21452515 125.58105469 155.22039795 C123.68181509 155.22978754 121.78255964 155.23635768 119.88330078 155.24023438 C117.03517784 155.24988085 114.18779622 155.28093828 111.33984375 155.3125 C96.99394371 155.39638503 82.8774574 154.40625812 69.3125 149.3125 C68.61809814 149.05686279 67.92369629 148.80122559 67.20825195 148.5378418 C54.50996904 143.67284932 44.61239987 136.49728131 35 127 C34.34515625 126.41734375 33.6903125 125.8346875 33.015625 125.234375 C8.94642326 103.3733569 1.08197747 63.78142707 -0.86376953 32.95263672 C-2.06053893 7.01405398 -2.06053893 7.01405398 0 0 Z " fill="#FFFFFF" transform="translate(9,596)"/>
<path d="M0 0 C46.37427936 -0.77851122 106.00592567 8.71233318 142 40 C142.58652344 40.4434375 143.17304687 40.886875 143.77734375 41.34375 C161.57762927 55.08138212 170.51071125 78.05266763 174.3125 99.5 C178.36510331 133.47952006 172.10869937 172.58327159 156 203 C152.89312506 201.44656253 152.6180804 198.37709146 151.5625 195.25 C143.86712436 173.83422514 131.68173582 155.38432255 116 139 C115.28070312 138.21753906 114.56140625 137.43507813 113.8203125 136.62890625 C97.4387319 119.39239467 76.24547204 106.90529501 54.86083984 96.875 C53.10338402 96.04861301 51.35788462 95.1969355 49.61328125 94.34375 C34.97584984 87.51616923 19.34179059 82.96772793 4 78 C4.01571045 76.76773682 4.0314209 75.53547363 4.04760742 74.26586914 C4.56486959 42.16676755 4.56486959 42.16676755 1.36376953 10.27880859 C0.81844586 6.86266686 0.41088022 3.43463951 0 0 Z " fill="#FFFFFF" transform="translate(903,465)"/>
<path d="M0 0 C1.67084374 2.03420013 3.11553492 4.00382415 4.5625 6.1875 C5.44774025 7.47327301 6.33585154 8.75707322 7.2265625 10.0390625 C7.68321289 10.6980957 8.13986328 11.35712891 8.61035156 12.03613281 C18.34089879 25.7874543 29.59695844 38.76236895 40.98046875 51.15625 C41.62628906 51.8678125 42.27210938 52.579375 42.9375 53.3125 C43.81728516 54.26576172 43.81728516 54.26576172 44.71484375 55.23828125 C46 57 46 57 46 60 C44.64916992 61.34350586 44.64916992 61.34350586 42.73046875 62.71484375 C41.65998291 63.48731445 41.65998291 63.48731445 40.56787109 64.27539062 C39.78234863 64.82388672 38.99682617 65.37238281 38.1875 65.9375 C37.37361816 66.51306641 36.55973633 67.08863281 35.72119141 67.68164062 C-2.97831629 94.79282461 -51.12558165 122.47805955 -100.2265625 115.50390625 C-117.88797153 111.97561122 -133.43961838 103.68425176 -147 92 C-147.68449219 91.44828125 -148.36898437 90.8965625 -149.07421875 90.328125 C-154.87338397 85.5429592 -159.39279257 79.91337448 -164 74 C-164.70898438 73.12988281 -165.41796875 72.25976562 -166.1484375 71.36328125 C-179.74011914 54.16514257 -200 22.81970868 -200 0 C-196.04004202 1.42495506 -192.48941353 3.34360633 -188.82202148 5.37646484 C-144.45748394 29.76855726 -94.2024491 28.66173457 -46.52734375 14.99609375 C-32.82093269 10.89923696 -19.19333934 6.25976661 -6.39038086 -0.15771484 C-3.69282286 -1.10823829 -2.59765776 -1.1429555 0 0 Z " fill="#FFFFFF" transform="translate(260,774)"/>
<path d="M0 0 C3.10651589 1.55325794 3.38275461 4.6228184 4.4375 7.75 C9.69951557 22.48737072 17.12032705 36.82967707 27 49 C27.66 49.85980469 28.32 50.71960938 29 51.60546875 C44.37916859 71.19694639 63.50780968 85.69750766 85 98 C85.67434082 98.3913916 86.34868164 98.7827832 87.04345703 99.18603516 C105.20720606 109.63720431 125.08841075 116.66942095 145 123 C145.12004395 123.97420898 145.24008789 124.94841797 145.36376953 125.95214844 C148.33218024 149.83271723 151.66828254 173.4803146 158.44482422 196.63818359 C159 199 159 199 159 203 C112.66465307 204.65483382 49.75410531 195.26429392 14 163 C12.87271484 162.08347656 12.87271484 162.08347656 11.72265625 161.1484375 C-6.74915352 145.80262631 -16.12179177 122.1263722 -18.75683594 98.76318359 C-21.73222199 64.95252155 -14.07842331 30.68175647 0 0 Z " fill="#FFFFFF" transform="translate(21,411)"/>
<path d="M0 0 C3.83080785 1.27693595 4.00477237 2.36706265 5.78515625 5.90625 C6.31093262 6.94749023 6.83670898 7.98873047 7.37841797 9.06152344 C7.93416504 10.1962207 8.48991211 11.33091797 9.0625 12.5 C9.63887207 13.66821289 10.21524414 14.83642578 10.80908203 16.04003906 C31.76568227 58.94081443 50.89919846 113.2881267 35.5390625 160.7890625 C31.5279083 172.27290713 25.20162663 182.04789773 17 191 C16.19046875 191.90234375 15.3809375 192.8046875 14.546875 193.734375 C-12.18817204 222.07032306 -53.40677486 234.30084686 -91 239 C-92.32 239 -93.64 239 -95 239 C-93.6051381 235.64412636 -91.5106046 233.13231845 -89.16699219 230.38427734 C-58.3651644 193.9936442 -49.54777357 145.13029629 -53.17956543 98.70458984 C-54.13752261 88.33126623 -55.22508747 77.71549919 -57.56079102 67.56225586 C-58.13108806 64.23525891 -58.33294061 61.36946448 -58 58 C-56.20019531 55.94750977 -56.20019531 55.94750977 -53.578125 54.12890625 C-48.22556726 50.08362759 -43.47567025 45.71140533 -38.734375 40.96484375 C-38.00617554 40.23689606 -37.27797607 39.50894836 -36.52770996 38.75894165 C-35.02589355 37.2526826 -33.52611944 35.74438469 -32.02832031 34.23413086 C-29.74600024 31.9334681 -27.45569281 29.64099496 -25.1640625 27.34960938 C-23.68702651 25.86765927 -22.21044806 24.38525297 -20.734375 22.90234375 C-20.0613031 22.22815903 -19.3882312 21.5539743 -18.69476318 20.85935974 C-14.2733586 16.39419973 -10.08652568 11.77257817 -6 7 C-5.4190155 6.32440536 -4.83803101 5.64881073 -4.23944092 4.95274353 C-2.82364759 3.30409793 -1.41141854 1.65239244 0 0 Z " fill="#FFFFFF" transform="translate(783,814)"/>
<path d="M0 0 C0.66 0 1.32 0 2 0 C2.05607422 1.81757813 2.05607422 1.81757813 2.11328125 3.671875 C3.66485447 45.86191384 17.17545198 83.28329787 44 116 C44.46132324 116.56428711 44.92264648 117.12857422 45.39794922 117.70996094 C60.92097204 136.56047222 78.97820315 151.81949805 98 167 C96.52019422 171.01555336 94.57000955 174.54503391 92.4375 178.25 C81.74840761 197.87059896 76.92269787 219.21740664 73 241 C66.04838212 238.84407347 59.60869372 236.10803539 53.0625 232.9375 C52.05832031 232.45289307 51.05414063 231.96828613 50.01953125 231.46899414 C11.16356898 212.53102712 -32.46891397 184.96147441 -48.25 142.6484375 C-57.76748404 113.32618886 -52.72798714 82.76647782 -39.0625 55.5625 C-38.05742561 53.63432963 -37.03329661 51.71913179 -35.98974609 49.81152344 C-35.04134455 48.07567256 -34.12343806 46.32326496 -33.20703125 44.5703125 C-25.64447255 30.60618492 -15.95055066 17.60704716 -4.98828125 6.12890625 C-2.96331269 4.05113262 -2.96331269 4.05113262 -1.35546875 1.71484375 C-0.68451172 0.86599609 -0.68451172 0.86599609 0 0 Z " fill="#FFFFFF" transform="translate(95,242)"/>
<path d="M0 0 C3.51229384 1.97720038 6.33722702 4.09843583 9.25 6.875 C16.42779631 13.43785955 24.21782071 19.1795649 32 25 C32.79212891 25.59570801 33.58425781 26.19141602 34.40039062 26.80517578 C44.35644919 34.28423426 54.39826778 41.46255338 65 48 C64.12019725 52.3741806 61.75286905 55.22032974 59 58.625 C58.5059668 59.24455566 58.01193359 59.86411133 57.50292969 60.50244141 C53.82966809 65.06980559 50.00140086 69.47250999 46.03125 73.78515625 C44.22158012 75.75839244 42.48160109 77.77107813 40.75 79.8125 C32.33955192 89.43000313 23.13363164 98.22050976 13 106 C12.44618652 106.43554199 11.89237305 106.87108398 11.32177734 107.31982422 C-11.8673987 125.50579072 -37.53112542 134.58840141 -67.19189453 131.79345703 C-99.24756207 127.58669739 -125.21132936 107.47640168 -148 86 C-149.09828125 84.96552734 -149.09828125 84.96552734 -150.21875 83.91015625 C-155.62627774 78.66356684 -160.34038031 72.91248245 -165 67 C-165.94166016 65.80697266 -165.94166016 65.80697266 -166.90234375 64.58984375 C-171 59.27735294 -171 59.27735294 -171 57 C-170.38817871 57.09087891 -169.77635742 57.18175781 -169.14599609 57.27539062 C-115.08438745 65.12645276 -66.91664495 51.5248475 -23 19 C-15.01165944 13.03711636 -7.32775485 6.7655726 0 0 Z " fill="#FFFFFF" transform="translate(341,867)"/>
<path d="M0 0 C0.49475896 46.0734771 0.18666994 99.68806802 -33.4375 135.52734375 C-53.49331504 154.87998234 -80.91006668 165.04513487 -108.6953125 165.203125 C-109.516828 165.21009399 -110.33834351 165.21706299 -111.18475342 165.22424316 C-113.8315546 165.24159514 -116.47814425 165.24796621 -119.125 165.25 C-120.02671936 165.25100708 -120.92843872 165.25201416 -121.85748291 165.25305176 C-135.1470886 165.24298903 -147.95400717 164.71158626 -161 162 C-162.73685991 161.67124431 -164.47384254 161.34313643 -166.2109375 161.015625 C-167.89145882 160.68124697 -169.57118828 160.34285825 -171.25 160 C-172.40604736 159.76941895 -172.40604736 159.76941895 -173.58544922 159.53417969 C-175.703125 159.0625 -175.703125 159.0625 -179 158 C-179.33 157.01 -179.66 156.02 -180 155 C-178.61941406 154.30777344 -178.61941406 154.30777344 -177.2109375 153.6015625 C-162.78686082 146.22908585 -150.63579763 137.22951978 -139 126 C-138.15953125 125.22269531 -137.3190625 124.44539063 -136.453125 123.64453125 C-119.94972707 107.9557915 -108.59535007 87.75775939 -99.5625 67.0625 C-99.13960693 66.09642822 -98.71671387 65.13035645 -98.28100586 64.13500977 C-96.52125503 60.0040843 -94.90068563 55.98883101 -93.8671875 51.61328125 C-92.94057087 47.88734798 -92.20194863 45.14968241 -90 42 C-85.94314001 40.0512502 -82.07748636 39.06723911 -77.69921875 38.12890625 C-72.81979991 37.06745777 -68.54231466 35.23560485 -64.0625 33.0625 C-63.40217773 32.75006348 -62.74185547 32.43762695 -62.06152344 32.11572266 C-58.30365008 30.28723977 -54.73634949 28.25407323 -51.17578125 26.06640625 C-45.99851857 22.91715598 -40.63035788 20.39172146 -35.125 17.875 C-26.12214999 13.68627614 -17.60486584 9.00622658 -9.20751953 3.70849609 C-8.43263184 3.2233252 -7.65774414 2.7381543 -6.859375 2.23828125 C-6.18358398 1.80555908 -5.50779297 1.37283691 -4.81152344 0.92700195 C-3 0 -3 0 0 0 Z " fill="#FFFFFF" transform="translate(670,915)"/>
<path d="M0 0 C3.53443774 0.76139011 6.33036522 2.21027038 9.48120117 3.98388672 C29.42297097 15.17998342 50.77298094 19.7333444 73.5 20.5625 C74.60859375 20.60568359 75.7171875 20.64886719 76.859375 20.69335938 C79.57281506 20.79862214 82.28633417 20.90075846 85 21 C83.22473836 27.31014473 81.20562406 33.34139582 78.5 39.3125 C78.15743164 40.07103271 77.81486328 40.82956543 77.46191406 41.61108398 C62.50824937 74.22371542 42.97794404 105.79361361 7.75 118.875 C-28.42014109 130.90480139 -66.70542173 120.86386793 -99.81835938 104.6171875 C-120.58307503 94.21351066 -120.58307503 94.21351066 -127 89 C-127 88.34 -127 87.68 -127 87 C-126.11199707 86.82778931 -126.11199707 86.82778931 -125.20605469 86.65209961 C-70.29104374 75.82252086 -31.70875814 45.44922 0 0 Z " fill="#FFFFFF" transform="translate(451,940)"/>
<path d="M0 0 C18.62358357 12.67059058 35.37648761 29.96965746 39.92578125 52.83203125 C41.21634573 62.56992689 40.43246569 71.72476242 34.625 79.9375 C33.55186248 81.23464195 32.44702117 82.50619009 31.3125 83.75 C30.77109375 84.34554687 30.2296875 84.94109375 29.671875 85.5546875 C12.97718536 101.8864491 -13.42548466 103.12399647 -35.24230957 102.98348999 C-53.53699952 102.77838386 -72.37014228 98.79140067 -86.6875 86.75 C-87.35394531 86.19441406 -88.02039063 85.63882813 -88.70703125 85.06640625 C-94.81987555 79.49406608 -98.21917375 72.20868791 -98.92578125 63.97265625 C-99.36060262 45.45842015 -90.81840928 30.23821381 -78.6875 16.75 C-77.76710938 15.70585938 -77.76710938 15.70585938 -76.828125 14.640625 C-56.26221548 -7.33150056 -26.82743723 -16.23268064 0 0 Z " fill="#FFFFFF" transform="translate(569.6875,782.25)"/>
<path d="M0 0 C10.77405536 10.1138804 17.11879581 24.05265152 17.625 38.8125 C17.47070371 50.16184957 14.05545161 61.32265587 7.3125 70.4375 C6.86132812 71.06914063 6.41015625 71.70078125 5.9453125 72.3515625 C-1.2631277 81.59628525 -12.67513264 87.90843157 -24.1171875 90.12109375 C-39.80474235 92.05223652 -53.78677902 89.04572408 -66.38671875 79.36328125 C-76.37074213 70.81194284 -82.63141154 60.54991317 -84.6875 47.4375 C-85.79384933 31.04176565 -82.30223632 17.23309536 -71.75 4.375 C-52.78298054 -15.81874212 -21.63500458 -16.55028 0 0 Z " fill="#FFFFFF" transform="translate(425.6875,639.5625)"/>
<path d="M0 0 C9.97630945 8.53197808 16.27536066 18.82212796 18.3046875 31.92578125 C19.22200261 48.19048378 16.5397174 62.00701616 5.6171875 74.67578125 C-3.54030664 84.29454176 -15.6118472 90.29098682 -28.921875 91.12890625 C-43.75956331 91.33356402 -57.00293729 87.80706247 -68.14453125 77.54296875 C-77.82166716 67.45144666 -83.4705704 54.51703134 -84.0703125 40.48828125 C-83.34877845 23.42243236 -76.74015857 11.41668361 -64.5703125 -0.08203125 C-46.08789339 -15.77849748 -18.66049852 -14.3604706 0 0 Z " fill="#FFFFFF" transform="translate(734.6953125,639.07421875)"/>
</svg>
