<?xml version="1.0" encoding="utf-8"?>
<!-- Generator: Adobe Illustrator 28.2.0, SVG Export Plug-In . SVG Version: 6.00 Build 0)  -->
<svg version="1.1" id="Lager_2_00000178178383468637147310000002592965907321479611_"
	 xmlns="http://www.w3.org/2000/svg" xmlns:xlink="http://www.w3.org/1999/xlink" x="0px" y="0px" viewBox="0 0 311.2 101.8"
	 style="enable-background:new 0 0 311.2 101.8;" xml:space="preserve">
<style type="text/css">
	.st0{fill:#1D1D1B;}
</style>
<g id="Lager_1-2">
	<g id="type">
		<a xlink:href="1.4210854715202e-14" >
			<path id="type_PathItem_" class="st0" d="M55.9,62.3H47c-0.7,0-1.3-0.1-1.8-0.3c-0.4-0.2-0.7-0.7-0.7-1.5V35.2
				c0-0.1-0.2,0-0.5,0.1c-0.7,1.7-1.3,3.4-2,5.2s-1.3,3.5-2,5.1l-5.1,13c-0.3,0.7-0.7,1.3-1.1,1.6c-0.4,0.3-1,0.5-1.7,0.5h-5.4
				c-0.8,0-1.5,0-2-0.2c-0.5-0.1-1-0.6-1.5-1.6l-4.9-13.2l-3.7-10.3c-0.1-0.1-0.3-0.2-0.4-0.2c-0.1,0-0.2,0-0.2,0.2v25.1
				c0,0.7-0.2,1.2-0.6,1.5c-0.4,0.2-1.1,0.3-1.9,0.3H2.5c-1.7,0-2.5-0.7-2.5-2.2V2.2C0,0.7,0.8,0,2.5,0h8.6c0.7,0,1.4,0.1,2.1,0.2
				c0.6,0.1,1.2,0.8,1.8,1.9c1.3,3.2,2.7,6.5,4.1,10.1c1.4,3.6,2.8,6.9,4.1,10l6,15.4c0.3,0.7,0.6,0.6,0.9-0.1l6-15.3l8.4-20.2
				c0.3-0.7,0.7-1.2,1.4-1.6C46.4,0.2,47.2,0,48.2,0h7.7c1.7,0,2.6,0.7,2.6,2.2v57.9C58.5,61.6,57.6,62.3,55.9,62.3"/>
		</a>
		<path id="type_CompoundPathItem_" class="st0" d="M91.6,27.8l-2-10.4c-0.1-0.3-0.2-0.5-0.4-0.5c-0.2,0-0.3,0.1-0.4,0.5l-1.9,10.4
			l-1.9,10.3c-0.1,0.7,0.3,1,1,1h7c0.3,0,0.6-0.1,0.8-0.2c0.2-0.2,0.2-0.5,0.1-1.1L91.6,27.8L91.6,27.8L91.6,27.8z M113.8,59.8
			c0.1,0.4,0.1,0.9-0.1,1.6s-0.9,1-2.1,1h-10.2c-0.6,0-1.2-0.2-1.6-0.5c-0.5-0.3-0.8-0.8-0.9-1.4l-1.5-7.2c-0.2-0.9-0.4-1.6-0.7-1.9
			C96.5,51.2,96,51,95.3,51h-12c-0.9,0-1.4,0.2-1.6,0.6c-0.2,0.4-0.3,0.9-0.6,1.5l-1.5,7.4c-0.1,0.7-0.5,1.1-1,1.4s-1,0.4-1.5,0.4
			H67.1c-0.7,0-1.2-0.1-1.5-0.2c-0.3-0.2-0.6-0.4-0.7-0.6s-0.1-0.5-0.1-0.8c0.1-0.3,0.1-0.6,0.2-0.9L79.6,1.7C80,0.6,80.8,0,82.1,0
			h14.3c0.5,0,1,0.1,1.5,0.2s0.8,0.6,1,1.5L113.8,59.8L113.8,59.8z"/>
		<path id="type_CompoundPathItem_-2" class="st0" d="M143.8,27.2c0.3,0,0.8-0.1,1.3-0.2c0.5-0.1,0.9-0.3,1.2-0.6
			c1.5-1.3,2.4-2.6,2.9-4c0.5-1.4,0.7-2.5,0.7-3.4c0-1.1-0.2-2.1-0.6-2.9c-0.4-0.8-0.9-1.4-1.5-1.9c-0.6-0.5-1.3-0.9-2-1.1
			c-0.7-0.2-1.4-0.4-2.1-0.4h-6.9c-0.9,0-1.6,0.2-1.8,0.5c-0.3,0.3-0.4,0.9-0.4,1.7v10.2c0,0.5,0.1,1,0.4,1.4
			c0.3,0.4,0.9,0.6,1.8,0.6L143.8,27.2L143.8,27.2L143.8,27.2z M144.6,0c2.9,0,5.6,0.4,8,1.2s4.5,2,6.2,3.6s3.1,3.5,4.1,5.8
			s1.5,5,1.5,8.1c0,3.5-0.8,6.7-2.3,9.7s-3.5,5.7-5.9,8c-0.3,0.5-0.5,0.8-0.5,1.1s0.1,0.7,0.4,1.3l9.8,21.1c0.3,0.5,0.3,1.1,0.1,1.6
			c-0.2,0.5-0.8,0.8-1.8,0.8h-10.1c-1.6,0-2.7-0.2-3.2-0.8s-0.9-1.1-1.3-1.8l-8.2-19.1c-0.1-0.5-0.6-0.7-1.3-0.7h-4.3
			c-0.7,0-1,0.4-1,1.1v19.2c0,1.3-0.8,2-2.5,2h-9.4c-1.7,0-2.5-0.7-2.5-2V2.4c0-0.7,0.2-1.3,0.4-1.8c0.3-0.4,0.9-0.7,1.7-0.7
			L144.6,0L144.6,0L144.6,0z"/>
		<a xlink:href="1.4210854715202e-14" >
			<path id="type_PathItem_-2" class="st0" d="M210.6,49.4c1.3,0,2,0.8,2,2.3v8.2c0,1.6-0.7,2.4-2,2.4h-35.5c-1.6,0-2.4-0.8-2.4-2.4
				V2.4c0-1.6,0.8-2.4,2.4-2.4h34.7c1.3,0,2,0.7,2,2.2v8.2c0,1.6-0.7,2.4-2,2.4h-20.4c-1,0-1.7,0.1-2,0.4c-0.3,0.3-0.4,0.8-0.4,1.5
				v6.9c0,0.9,0.2,1.6,0.5,2c0.3,0.4,1,0.6,2,0.6h16.7c0.8,0,1.4,0.2,1.7,0.6c0.3,0.4,0.4,1,0.4,1.8v8c0,0.7-0.1,1.3-0.4,1.8
				c-0.3,0.4-0.9,0.7-1.7,0.7h-17c-0.9,0-1.6,0.2-1.8,0.5c-0.3,0.3-0.4,0.9-0.4,1.6v8.2c0,0.9,0.2,1.5,0.6,1.8s1.2,0.4,2.3,0.4
				L210.6,49.4L210.6,49.4z"/>
		</a>
		<a xlink:href="1.4210854715202e-14" >
			<path id="type_PathItem_-3" class="st0" d="M258.2,49.4c0.6,0,1.1,0.2,1.4,0.5c0.3,0.3,0.5,0.9,0.5,1.7v8.4
				c0,1.6-0.6,2.4-1.9,2.4h-35.6c-1.6,0-2.4-0.8-2.4-2.4v-58c0-0.7,0.2-1.2,0.7-1.5c0.4-0.3,1-0.4,1.8-0.4h9.5
				c0.7,0,1.3,0.1,1.8,0.3c0.4,0.2,0.7,0.8,0.7,1.6v45.2c0,0.7,0.1,1.3,0.2,1.7c0.2,0.4,0.7,0.6,1.7,0.6H258.2L258.2,49.4
				L258.2,49.4z"/>
		</a>
		<path id="type_CompoundPathItem_-3" class="st0" d="M289.9,49.4c2.6,0,4.4-0.7,5.4-2c1-1.3,1.6-3.2,1.6-5.5V20.1
			c0-2.6-0.6-4.5-1.8-5.6c-1.2-1.1-3-1.7-5.4-1.7h-6c-1.1,0-1.9,0.2-2.1,0.8c-0.3,0.5-0.4,1.1-0.4,1.9v31.5c0,0.9,0.2,1.6,0.5,2
			c0.3,0.4,1,0.5,2,0.5H289.9L289.9,49.4z M269.2,62.3c-1.7,0-2.5-0.8-2.5-2.4V2.4c0-1.6,0.8-2.4,2.5-2.4h22.7
			c6.7,0,11.6,1.7,14.7,5.1c3.1,3.4,4.6,8.1,4.6,13.9v24.3c0,2.8-0.4,5.3-1.1,7.6s-1.9,4.3-3.4,6s-3.5,3-5.9,3.9
			c-2.4,0.9-5.1,1.4-8.4,1.4L269.2,62.3L269.2,62.3z"/>
		<path id="type_CompoundPathItem_-4" class="st0" d="M60,92.2c-1,1.1-2.6,1.6-4.8,1.6h-4.8v7.6h-2.5V81.8h7.2c2.3,0,3.9,0.6,5,1.8
			c0.9,1,1.5,2.4,1.5,4.1C61.6,89.6,61,91.1,60,92.2 M55.1,84.1h-4.7v7.5h4.8c2.6,0,3.9-1.2,3.9-3.8C59.1,85.2,57.5,84.1,55.1,84.1"
			/>
		<path id="type_CompoundPathItem_-5" class="st0" d="M79.8,101.4l-3.7-8.1h-5.4v8.1h-2.4V81.8h7.7c2.3,0,3.9,0.6,5,1.7
			c0.9,1,1.5,2.3,1.5,4s-0.6,2.9-1.5,3.8c-0.6,0.6-1.4,1.1-2.3,1.4l3.9,8.6H79.8L79.8,101.4z M75.9,84.1h-5.2V91h5.2
			c2.3,0,4-0.9,4-3.4S78.2,84.1,75.9,84.1"/>
		<path id="type_CompoundPathItem_-6" class="st0" d="M101.2,99.7c-1.4,1.4-3.3,2.1-5.3,2.1s-3.9-0.7-5.3-2.1
			c-2.1-2.1-2.5-4.9-2.5-8s0.4-6,2.5-8c1.4-1.4,3.3-2.1,5.3-2.1s3.9,0.7,5.3,2.1c2.1,2.1,2.5,4.9,2.5,8S103.3,97.6,101.2,99.7
			 M99.5,85.3c-0.9-1-2.2-1.5-3.6-1.5s-2.6,0.5-3.6,1.5c-1.6,1.7-1.7,4.3-1.7,6.3s0.1,4.7,1.7,6.3c0.9,1,2.2,1.5,3.6,1.5
			s2.6-0.5,3.6-1.5c1.6-1.7,1.7-4.3,1.7-6.3S101.1,86.9,99.5,85.3"/>
		<a xlink:href="1.4210854715202e-14" >
			<polygon id="type_PathItem_-4" class="st0" points="120.3,101.4 120.3,81.8 122.8,81.8 122.8,99.1 132.2,99.1 132.2,101.4 			"/>
		</a>
		<a xlink:href="1.4210854715202e-14" >
			<rect id="type_PathItem_-5" x="138.3" y="81.8" class="st0" width="2.5" height="19.5"/>
		</a>
		<a xlink:href="1.4210854715202e-14" >
			<path id="type_PathItem_-6" class="st0" d="M161.6,101.4l-0.4-2.3c-1,1.6-3.1,2.7-5.3,2.7c-1.9,0-3.9-0.6-5.3-2
				c-2-1.9-2.5-4.6-2.5-8.1c0-3.1,0.4-6,2.5-8c1.4-1.4,3.3-2.1,5.3-2.1c2.2,0,4.2,0.8,5.6,2.2c0.9,1,1.6,2.2,1.7,3.8h-2.6
				c-0.1-0.9-0.4-1.5-0.9-2.2c-0.9-1.1-2.2-1.5-3.8-1.5c-1.3,0-2.6,0.5-3.6,1.5c-1.6,1.7-1.7,4.3-1.7,6.3s0.1,4.8,1.8,6.4
				c0.9,1,2.2,1.4,3.5,1.4s2.7-0.5,3.6-1.3c1.3-1.3,1.7-3.2,1.7-4.9h-5.2v-2.3h7.4v10.5L161.6,101.4L161.6,101.4z"/>
		</a>
		<a xlink:href="1.4210854715202e-14" >
			<polygon id="type_PathItem_-7" class="st0" points="182.9,101.4 182.9,92.4 173.6,92.4 173.6,101.4 171.1,101.4 171.1,81.8 
				173.6,81.8 173.6,90 182.9,90 182.9,81.8 185.4,81.8 185.4,101.4 			"/>
		</a>
		<a xlink:href="1.4210854715202e-14" >
			<polygon id="type_PathItem_-8" class="st0" points="199.8,84.1 199.8,101.4 197.4,101.4 197.4,84.1 191.6,84.1 191.6,81.8 
				205.6,81.8 205.6,84.1 			"/>
		</a>
		<a xlink:href="1.4210854715202e-14" >
			<rect id="type_PathItem_-9" x="211.8" y="81.8" class="st0" width="2.5" height="19.5"/>
		</a>
		<a xlink:href="1.4210854715202e-14" >
			<polygon id="type_PathItem_-10" class="st0" points="234.8,101.4 225.2,85.7 225.2,101.4 222.8,101.4 222.8,81.8 225.6,81.8 
				235.2,97.6 235.2,81.8 237.5,81.8 237.5,101.4 			"/>
		</a>
		<a xlink:href="1.4210854715202e-14" >
			<path id="type_PathItem_-11" class="st0" d="M258.3,101.4l-0.4-2.3c-1,1.6-3.1,2.7-5.3,2.7c-1.9,0-3.9-0.6-5.3-2
				c-2-1.9-2.5-4.6-2.5-8.1c0-3.1,0.4-6,2.5-8c1.4-1.4,3.3-2.1,5.3-2.1c2.2,0,4.2,0.8,5.6,2.2c0.9,1,1.6,2.2,1.7,3.8h-2.6
				c-0.1-0.9-0.4-1.5-0.9-2.2c-0.9-1.1-2.2-1.5-3.8-1.5c-1.3,0-2.6,0.5-3.6,1.5c-1.6,1.7-1.7,4.3-1.7,6.3s0.1,4.8,1.8,6.4
				c0.9,1,2.2,1.4,3.5,1.4s2.7-0.5,3.5-1.3c1.3-1.3,1.7-3.2,1.7-4.9h-5.2v-2.3h7.4v10.5L258.3,101.4L258.3,101.4L258.3,101.4z"/>
		</a>
		<path id="type_CompoundPathItem_-7" class="st0" d="M272.2,93c-3.2,0-5.7-2.6-5.7-5.8s2.4-5.8,5.7-5.8s5.7,2.6,5.7,5.8
			S275.5,93,272.2,93 M272.2,82.5c-2.8,0-4.6,2-4.6,4.8s1.8,4.8,4.6,4.8s4.6-2,4.6-4.8S275,82.5,272.2,82.5 M273.5,90.2l-1-2.2h-1.2
			v2.2h-1.1v-6h2.2c1.1,0,2.1,0.7,2.1,1.9c0,0.8-0.4,1.4-1.1,1.7l1.1,2.4H273.5L273.5,90.2z M272.5,85.1h-1.2V87h1.2
			c0.6,0,1-0.3,1-0.9C273.5,85.4,273.1,85.1,272.5,85.1"/>
	</g>
</g>
</svg>
