<?xml version="1.0" encoding="UTF-8"?><svg id="Lager_1" xmlns="http://www.w3.org/2000/svg" viewBox="0 0 719.81 336.68"><defs><style>.cls-1{fill:#0284c5;}.cls-2{fill:#017fbf;}.cls-3{fill:#017fc0;}.cls-4{fill:#0076b3;}.cls-5{fill:#037bbc;}.cls-6{fill:#037cbd;}.cls-7{fill:#037cbc;}.cls-8{fill:#037abc;}.cls-9{fill:#038ac9;}.cls-10{fill:#0081c1;}.cls-11{fill:#008eca;}.cls-12{fill:#0094cf;}.cls-13{fill:#0085bc;}.cls-14{fill:#08b;}.cls-15{fill:#0088c7;}.cls-16{fill:#008dca;}.cls-17{fill:#0090cc;}.cls-18{fill:#0097d1;}.cls-19{fill:#0089be;}.cls-20{fill:#008cc8;}.cls-21{fill:#008cc0;}.cls-22{fill:#0092cc;}.cls-23{fill:#0093d0;}.cls-24{fill:#0087c6;}.cls-25{fill:#0087bb;}.cls-26{fill:#6bb9e3;}.cls-27{fill:#7bc4ea;}.cls-28{fill:#0099d1;}.cls-29{fill:#00a0d6;}.cls-30{fill:#91c9ea;}.cls-31{fill:#8ac7eb;}.cls-32{fill:#2fa4db;}.cls-33{fill:#42b3e2;}.cls-34{fill:#30a7db;}.cls-35{fill:#3ab0e1;}.cls-36{fill:#4ab6e1;}.cls-37{fill:#48afe1;}.cls-38{fill:#78c2e9;}.cls-39{fill:#79c4e8;}.cls-40{fill:#4da8da;}</style></defs><polygon class="cls-12" points="83.54 336.68 92.18 336.68 92.18 330.71 83.54 333.21 83.54 336.68 83.54 336.68"/><polygon class="cls-12" points="132.14 336.68 140.79 336.68 140.79 316.66 132.14 319.16 132.14 336.68 132.14 336.68"/><polygon class="cls-37" points="184.62 77.41 173.52 57.6 102.19 128.93 128.57 133.45 184.62 77.41 184.62 77.41"/><polygon class="cls-36" points="202.43 109.18 191.32 89.37 144.51 136.18 170.9 140.71 202.43 109.18 202.43 109.18"/><polygon class="cls-26" points="214.44 148.17 225.33 150.04 214.44 130.62 214.44 148.17 214.44 148.17"/><polygon class="cls-7" points="2.88 228.23 33.8 228.23 67.78 194.25 50.7 180.41 2.88 228.23 2.88 228.23"/><polygon class="cls-8" points="52.46 228.23 83.37 228.23 95.17 216.43 78.09 202.6 52.46 228.23 52.46 228.23"/><polygon class="cls-18" points="111.97 150.05 128.57 133.45 102.19 128.93 81.06 150.05 79.51 151.6 50.7 180.41 67.78 194.25 90.11 171.91 111.97 150.05 111.97 150.05"/><polygon class="cls-34" points="139.84 206.97 172.67 185.11 126.49 185.11 95.58 185.11 79.51 201.18 78.09 202.6 95.17 216.43 104.64 206.97 139.84 206.97 139.84 206.97"/><polygon class="cls-29" points="214.44 150.05 161.55 150.05 170.9 140.71 144.51 136.18 130.64 150.05 108.78 171.91 139.69 171.91 192.49 171.91 225.33 150.04 214.44 148.17 214.44 150.05 214.44 150.05"/><path class="cls-11" d="M8.64,319.01v-47.59c0-4.91,3.99-8.9,8.9-8.9h22.04c5.06,0,9.01,3.91,9.01,8.9v2.52l8.64-4.32v-2.38c0-7.37-6-13.36-13.37-13.36H13.36c-7.37,0-13.36,5.99-13.36,13.36v56.07c0,7.37,6,13.36,13.36,13.36h5.29l7.24-8.75h-8.35c-4.91,0-8.9-4-8.9-8.91h0Z"/><polygon class="cls-12" points="83.54 253.88 83.54 258.23 87.14 253.88 83.54 253.88 83.54 253.88"/><path class="cls-1" d="M43.88,336.68c7.37,0,13.37-5.99,13.37-13.36v-2.59l-8.64-4.2v2.49c0,4.99-3.96,8.91-9.01,8.91h-13.7l-7.24,8.75h25.23Z"/><polygon class="cls-1" points="132.14 259.45 132.14 287.14 132.14 290.95 128.33 290.95 95.99 290.95 92.18 290.95 92.18 287.14 92.18 253.88 87.14 253.88 83.54 258.23 83.54 333.21 92.18 330.71 92.18 303.3 92.18 299.49 95.99 299.49 128.33 299.49 132.14 299.49 132.14 303.3 132.14 319.16 140.79 316.66 140.79 271.32 132.14 259.45 132.14 259.45"/><polygon class="cls-12" points="140.79 253.88 132.14 253.88 132.14 259.45 140.79 271.32 140.79 253.88 140.79 253.88"/><polygon class="cls-9" points="182.43 268.99 187.87 253.88 186.8 253.88 182.43 268.99 182.43 268.99"/><polygon class="cls-12" points="139.84 206.97 204.8 206.97 212.68 185.11 172.67 185.11 139.84 206.97 139.84 206.97"/><polygon class="cls-22" points="192.49 171.91 214.44 171.91 217.44 171.91 225.33 150.04 192.49 171.91 192.49 171.91"/><polygon class="cls-3" points="164.36 331.31 164.36 336.68 168.07 336.68 168.07 318.49 164.36 331.31 164.36 331.31"/><polygon class="cls-4" points="168.07 318.49 168.07 336.68 171.42 336.68 171.42 335.52 171.42 334.98 171.56 334.46 175.97 319.2 176.77 316.44 179.64 316.44 183.93 316.44 195.98 316.44 170.68 309.49 168.07 318.49 168.07 318.49"/><polygon class="cls-25" points="211.11 334.46 211.27 334.98 211.27 335.52 211.27 336.68 218.21 336.68 218.21 331.31 215.47 321.79 206.77 319.4 211.11 334.46 211.11 334.46"/><polygon class="cls-13" points="269.26 336.56 244.38 329.73 244.38 336.56 269.26 336.56 269.26 336.56"/><path class="cls-9" d="M194.95,278.62l7.01,24.3,1.4,4.88h-24.02l1.37-4.86,6.9-24.3,3.64-12.84,3.7,12.82h0Zm-24.27,30.87l25.29,6.95h9.94l.79,2.76,.06,.2,8.7,2.39-19.6-67.91h-8l-5.45,15.1-11.74,40.5h0Z"/><polygon class="cls-20" points="301.19 336.56 301.19 327.8 256.84 327.8 253.03 327.8 253.03 323.99 253.03 303.19 253.03 253.77 244.38 253.77 244.38 329.73 269.26 336.56 301.19 336.56 301.19 336.56"/><polygon class="cls-9" points="249.5 228.23 263.16 228.23 249.5 200 249.5 228.23 249.5 228.23"/><polygon class="cls-9" points="214.44 206.97 214.44 228.23 236.3 228.23 236.3 206.97 236.3 185.11 214.44 185.11 212.68 185.11 204.8 206.97 214.44 206.97 214.44 206.97"/><polygon class="cls-28" points="217.44 171.91 235.91 171.91 225.33 150.04 217.44 171.91 217.44 171.91"/><polygon class="cls-5" points="336.56 253.77 327.92 253.77 327.92 336.56 330.13 336.56 336.56 323.94 336.56 303.19 336.56 253.77 336.56 253.77"/><polygon class="cls-23" points="249.5 200 263.16 228.23 271.36 228.23 271.36 170.99 249.5 161.04 249.5 200 249.5 200"/><polygon class="cls-32" points="236.3 155.03 225.33 150.04 235.91 171.91 236.3 171.91 236.3 155.03 236.3 155.03"/><polygon class="cls-24" points="326.61 228.23 348.47 228.23 348.47 206.09 326.61 196.14 326.61 228.23 326.61 228.23"/><polygon class="cls-11" points="291.56 228.23 313.41 228.23 313.41 190.13 291.56 180.18 291.56 228.23 291.56 228.23"/><polygon class="cls-10" points="371.02 216.35 371.02 228.23 385.33 228.23 387.55 223.87 371.02 216.35 371.02 216.35"/><polygon class="cls-21" points="384.71 336.56 384.71 327.8 340.38 327.8 336.56 327.8 336.56 323.99 336.56 323.94 330.13 336.56 384.71 336.56 384.71 336.56"/><polygon class="cls-21" points="407.27 336.68 443.75 336.68 439.33 327.8 419.73 327.8 415.92 327.8 415.92 323.99 415.92 303.3 415.92 299.49 419.73 299.49 425.22 299.49 420.97 290.95 419.73 290.95 415.92 290.95 415.92 287.14 415.92 280.82 407.27 263.46 407.27 336.68 407.27 336.68"/><polygon class="cls-9" points="407.27 263.46 415.92 280.82 415.92 266.22 415.92 262.41 419.73 262.41 435.36 262.41 424.79 253.88 407.27 253.88 407.27 263.46 407.27 263.46"/><polygon class="cls-17" points="447.9 299.49 447.9 290.95 420.97 290.95 425.22 299.49 447.9 299.49 447.9 299.49"/><polygon class="cls-17" points="464.18 336.68 464.18 327.8 439.33 327.8 443.75 336.68 464.18 336.68 464.18 336.68"/><polygon class="cls-11" points="500.13 336.68 500.13 314.61 491.48 307.63 491.48 336.68 500.13 336.68 500.13 336.68"/><polygon class="cls-1" points="464.18 262.41 464.18 253.88 424.79 253.88 435.36 262.41 464.18 262.41 464.18 262.41"/><polygon class="cls-1" points="500.13 282.95 500.13 268.5 507.27 281.07 538.83 336.68 548.62 336.68 548.62 253.88 539.98 253.88 539.98 306.81 539.98 321.26 532.84 308.7 501.73 253.88 491.48 253.88 491.48 307.63 500.13 314.61 500.13 282.95 500.13 282.95"/><polygon class="cls-5" points="607.46 298.61 608.92 295.7 607.46 295.7 607.46 298.61 607.46 298.61"/><path class="cls-1" d="M588.38,253.88c-7.37,0-13.36,5.99-13.36,13.36v56.07c0,7.34,5.95,13.31,13.28,13.36l4.4-8.75h-.14c-4.91,0-8.91-4-8.91-8.91v-47.59c0-4.91,4-8.9,8.91-8.9h21.93c2.46,0,4.75,.91,6.45,2.56,.85,.82,1.51,1.77,1.96,2.82l5.2-10.33c-2.4-2.28-5.64-3.7-9.2-3.7h-30.52Z"/><polygon class="cls-1" points="406.07 228.23 427.93 228.23 427.93 215.34 406.07 219.96 406.07 228.23 406.07 228.23"/><polygon class="cls-1" points="451.33 228.23 473.19 228.23 473.19 205.77 451.33 210.39 451.33 228.23 451.33 228.23"/><polygon class="cls-1" points="658.24 166.66 632.72 172.05 658.29 197.62 668.63 177.06 658.24 166.66 658.24 166.66"/><polygon class="cls-1" points="486.39 206.97 486.39 228.23 508.25 228.23 508.25 206.97 508.25 198.36 486.39 202.98 486.39 206.97 486.39 206.97"/><polygon class="cls-1" points="627.11 185.11 617.31 175.31 591.79 180.7 596.19 185.11 609.8 198.71 639.32 228.23 642.88 228.23 652.04 210.04 643.17 201.18 627.11 185.11 627.11 185.11"/><polygon class="cls-32" points="427.93 194.81 427.93 191.75 406.07 209.14 406.07 219.96 427.93 215.34 427.93 206.97 427.93 194.81 427.93 194.81"/><polygon class="cls-32" points="451.33 173.14 451.33 210.39 473.19 205.77 473.19 155.75 451.33 173.14 451.33 173.14"/><polygon class="cls-1" points="387.55 223.87 385.33 228.23 389.72 228.23 392.87 228.23 392.87 228.16 392.87 222.75 392.87 219.64 387.55 223.87"/><polygon class="cls-32" points="610.72 150.05 632.57 171.91 632.72 172.05 658.24 166.66 643.17 151.6 641.63 150.05 570.18 78.6 552.96 92.3 610.72 150.05 610.72 150.05"/><polygon class="cls-32" points="592.05 150.05 542.57 100.57 525.35 114.26 561.14 150.05 591.79 180.7 617.31 175.31 592.05 150.05 592.05 150.05"/><polygon class="cls-34" points="508.25 185.11 508.25 150.05 508.25 127.87 486.39 145.26 486.39 150.05 486.39 185.11 486.39 195.55 486.39 202.98 508.25 198.36 508.25 195.55 508.25 185.11 508.25 185.11"/><polygon class="cls-16" points="217.53 44.49 215.41 15.7 173.52 57.6 184.62 77.41 217.53 44.49 217.53 44.49"/><polygon class="cls-20" points="191.32 89.37 202.43 109.18 214.44 97.16 214.44 130.62 225.33 150.04 218.82 61.88 191.32 89.37 191.32 89.37"/><path class="cls-5" d="M607.46,304.35h16.17v14.67c0,4.99-3.96,8.91-9.02,8.91h-21.9l-4.4,8.75h30.6c7.37,0,13.36-5.99,13.36-13.36v-27.62h-23.35l-1.46,2.91v5.74h0Z"/><path class="cls-10" d="M623.63,271.43v2.52l8.64-4.32v-2.38c0-3.8-1.6-7.23-4.16-9.67l-5.2,10.33c.47,1.09,.72,2.28,.72,3.52h0Z"/><polygon class="cls-15" points="658.22 336.68 691.62 336.68 690.81 327.8 670.68 327.8 666.86 327.8 666.86 323.99 666.86 303.3 666.86 299.49 670.68 299.49 688.22 299.49 687.44 290.95 670.68 290.95 666.86 290.95 666.86 287.14 666.86 266.22 666.86 262.41 670.68 262.41 684.83 262.41 684.05 253.88 658.22 253.88 658.22 336.68 658.22 336.68"/><polygon class="cls-10" points="658.29 197.62 680.98 220.31 677.86 186.29 668.63 177.06 658.29 197.62 658.29 197.62"/><polygon class="cls-10" points="670.22 228.23 652.04 210.04 642.88 228.23 670.22 228.23 670.22 228.23"/><polygon class="cls-10" points="715.13 262.41 715.13 253.88 684.05 253.88 684.83 262.41 715.13 262.41 715.13 262.41"/><polygon class="cls-2" points="715.13 336.68 715.13 327.8 690.81 327.8 691.62 336.68 715.13 336.68 715.13 336.68"/><polygon class="cls-2" points="698.85 299.49 698.85 290.95 687.44 290.95 688.22 299.49 698.85 299.49 698.85 299.49"/><polygon class="cls-8" points="688.89 228.23 719.81 228.23 677.86 186.29 680.98 220.31 688.89 228.23 688.89 228.23"/><path class="cls-27" d="M238.24,23.79c1.26-1.26,2.95-1.93,4.67-1.93,.85,0,1.71,.16,2.53,.5,2.46,1.02,4.07,3.43,4.07,6.1V124.97l21.86-22.67V28.46c0-11.55-6.9-21.87-17.57-26.29-3.46-1.44-7.13-2.17-10.89-2.17h0c-7.6,0-14.75,2.96-20.12,8.33l-7.37,7.37,2.13,28.79,20.7-20.7h0Z"/><polygon class="cls-39" points="236.3 44.39 218.82 61.88 225.33 150.04 236.3 138.66 236.3 44.39 236.3 44.39"/><polygon class="cls-38" points="348.47 22.32 348.47 12.35 326.61 9.54 326.61 44.99 348.47 22.32 348.47 22.32"/><polygon class="cls-38" points="313.41 7.83 291.56 5.01 291.56 81.35 313.41 58.68 313.41 7.83 313.41 7.83"/><polygon class="cls-30" points="348.47 0 326.61 0 326.61 9.54 348.47 12.35 348.47 0 348.47 0"/><polygon class="cls-31" points="313.41 0 291.56 0 291.56 5.01 313.41 7.83 313.41 0 313.41 0"/><polygon class="cls-33" points="249.5 124.97 249.5 161.04 271.36 170.99 271.36 102.3 249.5 124.97 249.5 124.97"/><polygon class="cls-33" points="236.3 138.66 225.33 150.04 236.3 155.03 236.3 150.05 236.3 138.66 236.3 138.66"/><polygon class="cls-35" points="326.61 44.99 326.61 196.14 348.47 206.09 348.47 22.32 326.61 44.99 326.61 44.99"/><polygon class="cls-40" points="291.56 81.35 291.56 180.18 313.41 190.13 313.41 58.68 291.56 81.35 291.56 81.35"/><polygon class="cls-32" points="371.02 109.95 371.02 216.35 387.55 223.87 371.02 109.95 371.02 109.95"/><path class="cls-16" d="M473.19,28.46c0-2.67,1.61-5.08,4.07-6.1,.82-.34,1.68-.5,2.53-.5,1.71,0,3.4,.67,4.67,1.93l19.76,19.76,38.85,7.94-43.16-43.16c-5.38-5.37-12.52-8.33-20.12-8.33-3.76,0-7.43,.73-10.89,2.17-10.67,4.42-17.57,14.74-17.57,26.29v4.28l21.86,4.47v-8.75h0Z"/><path class="cls-24" d="M399.47,21.86c1.22,0,2.41,.34,3.46,.98l39.18,8.01-22.52-22.52c-5.37-5.37-12.52-8.33-20.12-8.33-3.76,0-7.42,.73-10.89,2.17-6.88,2.85-12.18,8.16-15.08,14.66l25,5.11c.32-.05,.65-.08,.97-.08h0Z"/><polygon class="cls-19" points="473.19 111.51 451.33 89.65 406.07 44.39 406.07 150.05 406.07 185.11 406.07 189.61 406.07 206.97 406.07 209.14 427.93 191.75 427.93 185.11 427.93 150.05 427.93 147.17 427.93 97.16 451.33 120.56 451.33 173.14 473.19 155.75 473.19 142.42 473.19 111.51 473.19 111.51"/><path class="cls-13" d="M371.02,109.95l16.53,113.92,5.32-4.23V28.46c0-2.67,1.61-5.08,4.07-6.1,.51-.21,1.03-.34,1.56-.42l-25-5.11c-1.6,3.58-2.49,7.53-2.49,11.63V109.95h0Z"/><path class="cls-14" d="M404.14,23.79l47.19,47.19,21.86,21.86V37.21l-21.86-4.47v7.33l-9.22-9.22-39.18-8.01c.43,.27,.84,.58,1.21,.95h0Z"/><polygon class="cls-5" points="552.96 92.3 570.18 78.6 543.07 51.49 504.21 43.55 552.96 92.3 552.96 92.3"/><polygon class="cls-10" points="486.39 145.26 508.25 127.87 508.25 117.42 508.25 97.16 525.35 114.26 542.57 100.57 486.39 44.39 486.39 145.26 486.39 145.26"/><polygon class="cls-6" points="164.36 331.24 162.29 336.68 164.36 336.68 164.36 331.24"/><polygon class="cls-6" points="218.21 331.31 220.21 336.68 218.21 336.68 218.21 331.31"/></svg>