<?xml version="1.0" encoding="UTF-8" standalone="no"?>
<!-- Created with Inkscape (http://www.inkscape.org/) -->

<svg
   version="1.1"
   id="svg2"
   width="690.65332"
   height="323.06668"
   viewBox="0 0 690.65332 323.06668"
   sodipodi:docname="Aim_Challenge_logo_white.eps"
   xmlns:inkscape="http://www.inkscape.org/namespaces/inkscape"
   xmlns:sodipodi="http://sodipodi.sourceforge.net/DTD/sodipodi-0.dtd"
   xmlns="http://www.w3.org/2000/svg"
   xmlns:svg="http://www.w3.org/2000/svg">
  <defs
     id="defs6" />
  <sodipodi:namedview
     id="namedview4"
     pagecolor="#ffffff"
     bordercolor="#000000"
     borderopacity="0.25"
     inkscape:showpageshadow="2"
     inkscape:pageopacity="0.0"
     inkscape:pagecheckerboard="0"
     inkscape:deskcolor="#d1d1d1" />
  <g
     id="g8"
     inkscape:groupmode="layer"
     inkscape:label="ink_ext_XXXXXX"
     transform="matrix(1.3333333,0,0,-1.3333333,0,323.06667)">
    <g
       id="g10"
       transform="scale(0.1)">
      <path
         d="M 1011.81,598.441 H 949.648 V 332.031 H 669.297 v 24.008 238.992 h -6.82 v 3.41 H 600.375 V 3.41016 h 6.82 V 0 h 62.102 v 239.898 27.383 h 27.391 232.375 20.585 V 243.32 3.41016 h 6.817 V 0 h 62.165 v 595.031 h -6.82 v 3.41"
         style="fill:#ffffff;fill-opacity:1;fill-rule:nonzero;stroke:none"
         id="path12" />
      <path
         d="M 2164.54,67.1992 H 1825.26 V 595.852 h -6.82 v 3.41 h -62.12 V 4.23828 h 6.82 V 0.832031 h 408.23 V 63.8008 h -6.83 v 3.3984"
         style="fill:#ffffff;fill-opacity:1;fill-rule:nonzero;stroke:none"
         id="path14" />
      <path
         d="M 2764.83,67.1992 H 2425.6 V 595.852 h -6.82 v 3.41 h -62.09 V 4.23828 h 6.82 V 0.832031 h 408.14 V 63.8008 h -6.82 v 3.3984"
         style="fill:#ffffff;fill-opacity:1;fill-rule:nonzero;stroke:none"
         id="path16" />
      <path
         d="M 3335.95,598.441 H 2926.92 V 3.41016 h 6.83 V 0 h 409.02 v 63.8008 h -6.82 v 3.3984 h -319.47 -20.57 v 23.9727 148.7261 27.383 h 27.4 202.48 v 61.328 h -6.82 v 3.422 h -202.49 -20.57 v 24.008 150.313 27.398 h 27.4 319.46 v 61.281 h -6.82 v 3.41"
         style="fill:#ffffff;fill-opacity:1;fill-rule:nonzero;stroke:none"
         id="path18" />
      <path
         d="M 3942.83,598.441 H 3880.7 V 122.809 l -44.48,78.281 -223.6,393.941 h -4.9 l -1.93,3.41 h -73.63 V 3.41016 h 6.81 V 0 h 62.18 v 386.09 95.25 l 44.44,-78.328 226.87,-399.60184 h 4.88 L 3879.28,0 h 70.37 v 595.031 h -6.82 v 3.41"
         style="fill:#ffffff;fill-opacity:1;fill-rule:nonzero;stroke:none"
         id="path20" />
      <path
         d="M 5139.48,598.441 H 4730.44 V 3.41016 h 6.82 V 0 h 409.05 v 63.8008 h -6.83 v 3.3984 h -319.51 -20.58 v 23.9727 148.7261 27.383 h 27.41 202.47 v 61.328 h -6.82 v 3.422 h -202.48 -20.58 v 24.008 150.313 27.398 h 27.41 319.51 v 61.281 h -6.83 v 3.41"
         style="fill:#ffffff;fill-opacity:1;fill-rule:nonzero;stroke:none"
         id="path22" />
      <path
         d="M 1793.1,2218.51 V 782.801 h 6.82 v -3.41 h 157.09 V 2215.1 c 0,79.36 -45.31,150.6 -116.29,184.47 -5.45,2.85 -11.04,5.5 -16.8,7.89 -24.9,10.33 -51.24,15.57 -78.25,15.57 h -0.01 c -54.61,-0.01 -105.96,-21.27 -144.59,-59.88 L 582.563,1344.64 571.453,1333.54 20.7227,782.801 H 30.957 l -3.4062,-3.41 H 249.703 l 404.754,404.759 157.082,157.08 907.411,907.41 c 9.08,9.08 21.2,13.9 33.55,13.9 5.99,0 12.03,-1.15 17.8,-3.5 14,-8.5 22.8,-23.8 22.8,-40.53"
         style="fill:#ffffff;fill-opacity:1;fill-rule:nonzero;stroke:none"
         id="path24" />
      <path
         d="M 1698.25,1092.71 H 686.941 L 571.453,977.219 377.035,782.801 h 10.235 l -3.407,-3.41 h 222.145 l 152.816,152.82 h 782.336 v -149.41 h 6.82 v -3.41 h 157.09 v 152.82 157.089 h -6.82 v 3.41"
         style="fill:#ffffff;fill-opacity:1;fill-rule:nonzero;stroke:none"
         id="path26" />
      <path
         d="m 1541.16,1714.54 v -369.9 h -369.9 z M 1698.25,2104 938.883,1344.64 781.797,1187.57 h 10.234 l -3.41,-3.42 h 222.149 537.21 157.09 v 157.08 759.36 l -6.82,-6.82 V 2104"
         style="fill:#ffffff;fill-opacity:1;fill-rule:nonzero;stroke:none"
         id="path28" />
      <path
         d="M 2252.43,2423.03 H 2095.35 V 782.801 h 6.82 v -3.41 h 157.08 V 2419.62 h -6.82 v 3.41"
         style="fill:#ffffff;fill-opacity:1;fill-rule:nonzero;stroke:none"
         id="path30" />
      <path
         d="m 4389.06,1344.64 157.08,-157.07 404.76,-404.769 h 3.42 l 3.41,-3.41 h 222.16 l -550.74,550.729 -11.1,11.11 -1018.52,1018.5 c -17,17.01 -36.48,30.64 -57.62,40.57 -28.64,14.83 -60.6,22.72 -93.78,22.73 h -0.01 c -27.02,0 -53.35,-5.24 -78.26,-15.57 -76.7,-31.75 -126.27,-105.92 -126.27,-188.95 v -80.05 l -221.27,221.27 c -17.01,17.01 -36.48,30.64 -57.62,40.57 -28.65,14.83 -60.6,22.72 -93.79,22.73 h -0.01 c -27.01,0 -53.35,-5.24 -78.24,-15.57 -76.7,-31.75 -126.27,-105.92 -126.27,-188.95 V 782.801 h 6.82 v -3.41 h 157.08 V 2215.1 c 0,19.17 11.57,36.48 29.28,43.82 5.88,2.44 12.05,3.62 18.15,3.62 6,0 11.96,-1.16 17.53,-3.39 3.3,-1.97 6.4,-4.3 9.19,-7.1 l 339.15,-339.15 157.09,-157.09 v 3.42 l 6.83,-6.82 v 222.14 240.55 c 0,19.17 11.55,36.48 29.27,43.82 5.89,2.44 12.05,3.62 18.15,3.62 6.01,0 11.95,-1.16 17.53,-3.39 3.29,-1.97 6.4,-4.3 9.2,-7.1 l 907.4,-907.41"
         style="fill:#ffffff;fill-opacity:1;fill-rule:nonzero;stroke:none"
         id="path32" />
      <path
         d="m 361.738,586.488 c -13.754,7.602 -29.547,11.953 -46.343,11.953 H 96.0469 C 43.0938,598.441 0,555.398 0,502.41 V 99.4414 C 0,60.5703 23.2383,27.0508 56.5313,11.9492 70.2773,4.33984 86.0781,0 102.871,0 h 219.344 c 52.941,0 96.031,43.082 96.031,96.0195 v 18.6285 l -6.82,3.313 v 0.09 l -62.11,30.199 v -17.891 c 0,-35.8785 -28.453,-64.027 -64.769,-64.027 H 126.094 c -8.758,0 -17.114,1.7696 -24.727,4.9766 C 82.0352,82.3281 68.9492,103.129 68.9492,126.949 v 341.992 c 0,35.321 28.668,64 63.9648,64 h 158.453 c 9.297,0 18.063,-1.871 25.981,-5.222 19.242,-10.957 31.968,-31.399 31.968,-55.36 v -18.14 l 6.817,3.41 v -6.82 l 62.113,31.082 V 499 c 0,38.891 -23.223,72.398 -56.508,87.488"
         style="fill:#ffffff;fill-opacity:1;fill-rule:nonzero;stroke:none"
         id="path34" />
      <path
         d="m 1305.57,242.48 49.59,174.641 23.28,82.07 22.62,-78.511 50.4,-174.66 10.04,-35.09 h -36.41 -99.94 -28.49 z m 103.09,352.551 -0.98,3.41 h -65.17 L 1181.2,42.0195 V 3.41016 h 6.82 V 0 h 50.73 v 8.30859 3.89061 l 1.05,3.75 31.67,109.6798 5.75,19.851 h 20.67 30.82 137.32 14.79 l 4.73,-16.429 31.67,-109.6916 1.1,-3.75 V 11.7305 3.41016 h 6.83 V 0 h 49.92 V 38.6016 L 1414.5,595.031 h -5.84"
         style="fill:#ffffff;fill-opacity:1;fill-rule:nonzero;stroke:none"
         id="path36" />
      <path
         d="m 4494.28,586.488 c -13.75,7.602 -29.55,11.953 -46.35,11.953 h -219.35 c -52.97,0 -96.05,-43.043 -96.05,-96.031 V 99.4414 c 0,-38.8711 23.22,-72.3906 56.52,-87.4922 C 4202.8,4.33984 4218.6,0 4235.4,0 h 219.35 c 52.95,0 96.03,43.082 96.03,96.0195 V 294.5 h -6.81 v 3.41 h -178.28 v -62.148 h 6.82 v -3.41 h 88.71 20.65 v -23.993 -78 c 0,-35.8785 -28.47,-64.027 -64.82,-64.027 h -158.43 c -8.75,0 -17.1,1.7696 -24.71,4.9766 -19.35,11.0195 -32.46,31.8204 -32.46,55.6404 v 341.992 c 0,35.321 28.75,64 64,64 h 157.6 c 9.43,0 18.47,-1.902 26.74,-5.421 4.63,-2.649 8.97,-5.809 12.85,-9.59 12.43,-11.981 19.23,-28.168 19.23,-45.571 v -18.14 l 6.82,3.41 v -6.82 l 62.09,31.082 V 499 c 0,38.891 -23.22,72.398 -56.5,87.488"
         style="fill:#ffffff;fill-opacity:1;fill-rule:nonzero;stroke:none"
         id="path38" />
      <path
         d="M 2511.19,779.391 V 2419.62 h -6.82 v 3.41 H 2347.29 V 782.801 h 6.82 v -3.41 h 157.08"
         style="fill:#ffffff;fill-opacity:1;fill-rule:nonzero;stroke:none"
         id="path40" />
      <path
         d="m 2925.15,2100.59 v -3.41 l -6.82,6.82 V 782.801 h 6.82 v -3.41 h 157.08 v 152.82 87.349 69.74 251.93 20.74 355.98 l 161.36,-161.36 V 782.801 h 6.83 v -3.41 h 157.09 v 616.699 222.15 l -157.09,157.08 -325.27,325.27"
         style="fill:#ffffff;fill-opacity:1;fill-rule:nonzero;stroke:none"
         id="path42" />
      <path
         d="m 4823.57,779.391 -194.42,194.429 -115.48,115.48 -251.94,251.93 -759.37,759.36 v -3.41 l -6.82,6.82 v -759.36 -251.93 -75.08 -82.009 -152.82 h 6.82 v -3.41 h 157.09 v 152.82 82.009 75.08 251.93 234.53 142.19 l 373.3,-373.31 251.94,-251.93 97.78,-97.788 212.13,-212.121 h 3.41 l 3.41,-3.41 h 222.15"
         style="fill:#ffffff;fill-opacity:1;fill-rule:nonzero;stroke:none"
         id="path44" />
    </g>
  </g>
</svg>
