<?xml version="1.0" encoding="utf-8"?>
<!-- Generator: Adobe Illustrator 28.2.0, SVG Export Plug-In . SVG Version: 6.00 Build 0)  -->
<svg version="1.1" id="Lager_1" xmlns="http://www.w3.org/2000/svg" xmlns:xlink="http://www.w3.org/1999/xlink" x="0px" y="0px"
	 viewBox="0 0 360 92.3" style="enable-background:new 0 0 360 92.3;" xml:space="preserve">
<style type="text/css">
	.st0{fill:#FFFFFF;}
</style>
<path class="st0" d="M303.8,91.2H46.6V76.9h257.2L303.8,91.2z M352.4,35.6c4.3,0,7.7,3.5,7.7,7.7c0,4.3-3.4,7.7-7.7,7.7
	c-4.2,0-7.7-3.5-7.7-7.7C344.7,39,348.1,35.6,352.4,35.6z M352.4,49.6c3.4,0,6.2-2.8,6.2-6.2c0-3.5-2.8-6.2-6.2-6.2
	c-3.4,0-6.2,2.8-6.2,6.2S348.9,49.6,352.4,49.6z M348.9,39.3h3.9c2,0,2.7,1.1,2.7,2.3s-0.8,2.1-2.2,2.3c0.7,0.2,1,0.7,1.6,1.6l1.1,2
	h-2.1l-0.7-1.3c-0.8-1.6-1.3-2-2.3-2h-0.4v3.4h-1.7L348.9,39.3z M352.4,42.8c0.8,0,1.4-0.5,1.4-1.1c0-0.7-0.6-1.1-1.7-1.1h-1.5v2.2
	L352.4,42.8L352.4,42.8z M35.3,72.8c-4.9,4.6-7.3,5.9-10.4,5.9c-7.9,0-11.1-9.5-11.1-32.6s3.1-32.6,10.7-32.5c3.1,0,6.7,1.9,9.7,5
	l2.3,2.4V5.3l-0.6-0.5c-4-3-8.5-4.8-12.1-4.8C8.7,0,0,17,0,46.7c0,29,8.6,45.6,23.6,45.6c4.8,0,8.9-1.6,13.4-5.2l0.6-0.5V70.8
	L35.3,72.8z M71.9,3.8H60.5l-14,67.4h11.3c0,0,2.5-12.6,2.8-14.3h11.3c0.3,1.7,2.5,14.3,2.5,14.3h11.3L71.9,3.8z M69.8,46.7h-7.4
	c0.4-2,2.5-13.4,3.7-20C67.3,33.4,69.4,44.7,69.8,46.7z M132.8,4.2h-8.6c0,0-8,18.1-9.8,22c-1.7-3.9-9.8-22-9.8-22h-9.8v67h11.3
	l-0.5-42.6l8.8,20.9l8.7-20.9l-0.5,42.6H134v-67C134,4.2,132.8,4.2,132.8,4.2z M159.4,61.1V41.4h14.8V31.3h-14.8v-17h16.2V4.2h-27.8
	v67h28.6V61.1C176.4,61,161.4,61,159.4,61.1z M200.7,61V4.1h-11.5v67h27.7V61C216.9,61.1,202.8,61.1,200.7,61z M248.6,35.1
	c5.3-3.5,8.3-8.3,8.3-13.8c0-8.4-7.5-17.2-19.9-17.1h-12.1v67h9.8c17.5,0,23.8-10.3,23.8-19.8C258.5,43.9,255.1,38.5,248.6,35.1z
	 M236.9,61h-0.4V41.6h0.4c9.4,0,10.1,7.6,10.1,9.9C247,57.6,243.3,61,236.9,61z M236.4,31.5V14.3c5.7,0.1,8.9,3,8.9,8.3
	C245.4,28.1,242,31.3,236.4,31.5z M289.9,3.8h-11.4l-13.9,67.4h11.3c0,0,2.4-12.6,2.8-14.3H290c0.3,1.7,2.6,14.3,2.6,14.3h11.3
	C303.9,71.2,289.9,3.8,289.9,3.8z M287.9,46.7h-7.4c0.4-2,2.5-13.3,3.7-20C285.4,33.4,287.5,44.8,287.9,46.7L287.9,46.7z"/>
<path class="st0" d="M352,91.1c0,0-16-44.9-16.4-46C336,44,348.8,3.2,348.8,3.2h-13.5l-9.4,34.6V3.2h-13v87.9H326V53.7l12.5,37.4
	C338.5,91.1,352,91.1,352,91.1z"/>
</svg>
