<?xml version="1.0" encoding="UTF-8" standalone="no"?>
<!-- Created with Inkscape (http://www.inkscape.org/) -->

<svg
   version="1.1"
   id="svg2"
   width="382.46667"
   height="93.480003"
   viewBox="0 0 382.46667 93.480003"
   sodipodi:docname="injinji_black.eps"
   xmlns:inkscape="http://www.inkscape.org/namespaces/inkscape"
   xmlns:sodipodi="http://sodipodi.sourceforge.net/DTD/sodipodi-0.dtd"
   xmlns="http://www.w3.org/2000/svg"
   xmlns:svg="http://www.w3.org/2000/svg">
  <defs
     id="defs6" />
  <sodipodi:namedview
     id="namedview4"
     pagecolor="#ffffff"
     bordercolor="#000000"
     borderopacity="0.25"
     inkscape:showpageshadow="2"
     inkscape:pageopacity="0.0"
     inkscape:pagecheckerboard="0"
     inkscape:deskcolor="#d1d1d1" />
  <g
     id="g8"
     inkscape:groupmode="layer"
     inkscape:label="ink_ext_XXXXXX"
     transform="matrix(1.3333333,0,0,-1.3333333,0,93.48)">
    <g
       id="g10"
       transform="scale(0.1)">
      <path
         d="m 0,4.44531 h 696.66 v 696.66 H 0 Z"
         style="fill:#e51b23;fill-opacity:1;fill-rule:nonzero;stroke:none"
         id="path12" />
      <path
         d="m 348.328,110.559 c -129.82,0 -235.047,105.156 -235.047,234.968 0,129.825 105.227,235.039 235.047,235.039 129.758,0 235.051,-105.214 235.051,-235.039 0,-129.812 -105.293,-234.968 -235.051,-234.968 z m 0,522.293 C 189.68,632.852 61.0156,504.316 61.0156,345.527 61.0156,186.965 189.68,58.1563 348.328,58.1563 c 158.586,0 287.246,128.8087 287.246,287.3707 0,158.789 -128.66,287.325 -287.246,287.325"
         style="fill:#ffffff;fill-opacity:1;fill-rule:nonzero;stroke:none"
         id="path14" />
      <path
         d="m 361.992,357.355 c 0.071,-6.769 -5.183,-12.238 -11.816,-12.238 -6.707,-0.215 -12.09,5.332 -12.227,12.031 -0.078,6.497 5.321,11.875 12.024,11.946 6.55,0.156 11.961,-5.332 12.019,-11.739 z M 349.016,463.938 242.285,284.434 c 0,0 53.098,24.062 124.778,2.687 30.945,-9.23 102.554,-43.652 141.082,-20.031 l 0.148,-40.039 c -55.355,-21.309 -102.426,2.238 -142.609,16.047 -56.575,19.629 -122.371,-3.157 -151.817,-26.282 l -37.91,37.356 171.699,278.223 138.899,-230.801 -36.075,0.273 -101.464,162.071"
         style="fill:#ffffff;fill-opacity:1;fill-rule:nonzero;stroke:none"
         id="path16" />
      <path
         d="m 366.367,357.355 c 0,-9.503 -7.59,-17.16 -17.082,-17.16 -9.297,0 -17.012,7.657 -17.012,17.16 0,9.297 7.715,16.934 17.012,16.934 9.492,0 17.082,-7.637 17.082,-16.934"
         style="fill:#ffffff;fill-opacity:1;fill-rule:nonzero;stroke:none"
         id="path18" />
      <path
         d="m 594.648,612.285 v -11.211 h 8.067 c 2.121,0 3.762,0.481 4.922,1.524 1.23,0.918 1.843,2.363 1.843,4.082 0,1.965 -0.757,3.351 -2.246,4.23 -1.441,0.965 -3.777,1.375 -6.914,1.375 z m -5.949,4.844 h 12.446 c 4.648,0 8.132,-1.016 10.652,-2.742 2.527,-1.758 3.769,-4.297 3.769,-7.383 0,-2.246 -0.753,-4.199 -2.128,-6.086 -1.426,-1.883 -3.282,-3.133 -5.458,-3.691 l 7.442,-16.719 h -6.352 l -7.039,15.781 h -7.383 v -15.781 h -5.949 z m 13.117,10.176 c -7.5,0 -13.925,-2.801 -19.187,-8.407 -5.344,-5.527 -8,-12.355 -8,-20.207 0,-8.066 2.656,-14.695 7.93,-20.359 5.332,-5.547 11.679,-8.273 19.257,-8.273 7.461,0 13.875,2.871 19.082,8.39 5.325,5.801 8.047,12.313 8.047,20.242 0,7.852 -2.722,14.68 -8.047,20.207 -5.207,5.606 -11.621,8.407 -19.082,8.407 z m -31.699,-28.614 c 0,9.153 3.074,17.082 9.309,23.625 6.14,6.512 13.66,9.637 22.39,9.637 8.692,0 16.067,-3.125 22.278,-9.637 6.148,-6.543 9.297,-14.472 9.297,-23.625 0,-9.109 -3.149,-17.078 -9.297,-23.535 -6.211,-6.562 -13.586,-9.824 -22.278,-9.824 -8.73,0 -16.25,3.262 -22.39,9.777 -6.235,6.504 -9.309,14.266 -9.309,23.582"
         style="fill:#ffffff;fill-opacity:1;fill-rule:nonzero;stroke:none"
         id="path20" />
      <path
         d="M 1043.09,114.504 H 921.113 v 339.473 h 121.977 z m 0,380.644 H 921.113 v 99.981 h 121.977 v -99.981"
         style="fill:#100f0d;fill-opacity:1;fill-rule:nonzero;stroke:none"
         id="path22" />
      <path
         d="m 1224.15,114.504 h -121.97 v 337.539 h 121.97 v -51.914 c 13.94,20.82 31.89,35.684 53.72,44.285 21.85,8.859 54.71,13.098 98.71,13.098 55.34,0 96.7,-10.254 124.39,-30.813 27.59,-20.691 41.45,-51.523 41.45,-92.449 V 114.504 h -121.97 v 171.23 c 0,30.215 -6.83,50.02 -20.36,59.383 -13.6,9.551 -39.48,14.426 -77.61,14.426 -35.48,0 -60.67,-6.379 -75.79,-18.73 -15.1,-12.375 -22.54,-33.137 -22.54,-62.227 V 114.504"
         style="fill:#100f0d;fill-opacity:1;fill-rule:nonzero;stroke:none"
         id="path24" />
      <path
         d="m 1724.22,495.148 h -121.93 v 99.981 h 121.93 z m 0,-399.4253 c 0,-36.3282 -8.45,-61.4454 -25.26,-75.1368 C 1682.1,6.76953 1650.78,0 1605.41,0 c -6.89,0 -14.54,0.0390625 -22.83,0.683594 -8.17,0.519536 -17.26,1.437496 -27.19,2.480466 V 88.8867 c 0.92,0 3.44,-0.2734 7.69,-0.8789 4.16,-0.6719 7.2,-0.9648 9.49,-0.9648 10.29,0 17.82,2.9297 22.55,8.6797 4.68,5.8203 7.17,15.3123 7.17,28.3713 v 329.883 h 121.93 V 95.7227"
         style="fill:#100f0d;fill-opacity:1;fill-rule:nonzero;stroke:none"
         id="path26" />
      <path
         d="m 1906.55,114.504 h -121.98 v 339.473 h 121.98 z m 0,380.644 h -121.98 v 99.981 h 121.98 v -99.981"
         style="fill:#100f0d;fill-opacity:1;fill-rule:nonzero;stroke:none"
         id="path28" />
      <path
         d="M 2087.76,114.504 H 1965.7 v 337.539 h 122.06 v -51.914 c 13.94,20.82 31.83,35.684 53.63,44.285 21.77,8.859 54.72,13.098 98.78,13.098 55.23,0 96.68,-10.254 124.3,-30.813 27.68,-20.691 41.42,-51.523 41.42,-92.449 V 114.504 h -121.98 v 171.23 c 0,30.215 -6.81,50.02 -20.31,59.383 -13.49,9.551 -39.32,14.426 -77.69,14.426 -35.36,0 -60.59,-6.379 -75.69,-18.73 -15.1,-12.375 -22.46,-33.137 -22.46,-62.227 V 114.504"
         style="fill:#100f0d;fill-opacity:1;fill-rule:nonzero;stroke:none"
         id="path30" />
      <path
         d="m 2587.76,495.148 h -122.09 v 99.981 h 122.09 z m 0,-399.4253 c 0,-36.3282 -8.48,-61.4454 -25.34,-75.1368 C 2545.52,6.76953 2514.38,0 2468.88,0 c -6.94,0 -14.42,0.0390625 -22.63,0.683594 -8.33,0.519536 -17.42,1.437496 -27.27,2.480466 V 88.8867 c 0.76,0 3.35,-0.2734 7.61,-0.8789 4.15,-0.6719 7.29,-0.9648 9.57,-0.9648 10.17,0 17.74,2.9297 22.47,8.6797 4.72,5.8203 7.04,15.3123 7.04,28.3713 v 329.883 h 122.09 V 95.7227"
         style="fill:#100f0d;fill-opacity:1;fill-rule:nonzero;stroke:none"
         id="path32" />
      <path
         d="m 2770.14,114.504 h -121.99 v 339.473 h 121.99 z m 0,380.644 h -121.99 v 99.981 h 121.99 v -99.981"
         style="fill:#100f0d;fill-opacity:1;fill-rule:nonzero;stroke:none"
         id="path34" />
      <path
         d="m 2820.84,643.848 v -13.184 h 9.89 c 2.67,0 4.64,0.606 6.13,1.848 1.48,1.015 2.28,2.722 2.28,4.765 0,2.129 -0.97,3.875 -2.8,5 -1.85,0.965 -4.58,1.571 -8.49,1.571 z m -7.41,5.605 h 15.46 c 5.6,0 9.97,-1.101 13.05,-3.172 3.04,-2.031 4.65,-4.961 4.65,-8.644 0,-2.606 -0.85,-5 -2.69,-7.129 -1.64,-2.168 -3.88,-3.602 -6.61,-4.238 l 9.22,-19.52 h -7.93 l -8.7,18.438 h -9.04 V 606.75 h -7.41 z m 16.34,11.895 c -9.29,0 -17.3,-3.231 -23.75,-9.696 -6.61,-6.582 -9.77,-14.57 -9.77,-23.789 0,-9.367 3.16,-17.101 9.7,-23.644 6.48,-6.492 14.41,-9.715 23.82,-9.715 9.09,0 16.93,3.223 23.51,9.851 6.56,6.633 9.85,14.336 9.85,23.508 0,9.219 -3.29,17.207 -9.85,23.789 -6.58,6.465 -14.42,9.696 -23.51,9.696 z m -39.16,-33.407 c 0,10.704 3.83,19.981 11.48,27.598 7.62,7.559 16.82,11.473 27.68,11.473 10.66,0 19.73,-3.914 27.38,-11.473 7.65,-7.617 11.35,-16.894 11.35,-27.598 0,-10.753 -3.7,-19.824 -11.35,-27.55 -7.65,-7.664 -16.72,-11.493 -27.38,-11.493 -10.86,0 -20.06,3.758 -27.68,11.493 -7.65,7.539 -11.48,16.738 -11.48,27.55"
         style="fill:#100f0d;fill-opacity:1;fill-rule:nonzero;stroke:none"
         id="path36" />
    </g>
  </g>
</svg>
