<?xml version="1.0" encoding="UTF-8" standalone="no"?>
<!-- Created with Inkscape (http://www.inkscape.org/) -->

<svg
   version="1.1"
   id="svg2"
   width="739.47998"
   height="388.37332"
   viewBox="0 0 739.47998 388.37332"
   sodipodi:docname="Ortovox_svart.ai"
   xmlns:inkscape="http://www.inkscape.org/namespaces/inkscape"
   xmlns:sodipodi="http://sodipodi.sourceforge.net/DTD/sodipodi-0.dtd"
   xmlns="http://www.w3.org/2000/svg"
   xmlns:svg="http://www.w3.org/2000/svg">
  <defs
     id="defs6">
    <clipPath
       clipPathUnits="userSpaceOnUse"
       id="clipPath16">
      <path
         d="M 0,291.28 H 554.61 V 0 H 0 Z"
         id="path14" />
    </clipPath>
  </defs>
  <sodipodi:namedview
     id="namedview4"
     pagecolor="#ffffff"
     bordercolor="#000000"
     borderopacity="0.25"
     inkscape:showpageshadow="2"
     inkscape:pageopacity="0.0"
     inkscape:pagecheckerboard="0"
     inkscape:deskcolor="#d1d1d1" />
  <g
     id="g8"
     inkscape:groupmode="layer"
     inkscape:label="Ortovox_svart"
     transform="matrix(1.3333333,0,0,-1.3333333,0,388.37333)">
    <g
       id="g10">
      <g
         id="g12"
         clip-path="url(#clipPath16)">
        <g
           id="g18"
           transform="translate(62.7792,63.096)">
          <path
             d="m 0,0 c 9.463,0 17.303,-7.401 17.303,-16.525 0,0 0.286,-3.894 0.286,-10.986 0,-7.092 -0.286,-11.044 -0.286,-11.044 0,-9.127 -7.672,-16.524 -17.134,-16.524 0,0 -5.556,-0.281 -18.567,-0.281 -13.012,0 -18.558,0.281 -18.558,0.281 -9.462,0 -17.133,7.397 -17.133,16.524 0,0 -0.296,3.326 -0.296,11.085 0,7.76 0.296,10.945 0.296,10.945 0,9.124 7.875,16.525 17.336,16.525 0,0 5.195,0.285 18.262,0.285 C -5.423,0.285 0,0 0,0 m -35.528,-9.642 c -2.539,-0.108 -4.673,-0.998 -6.236,-2.596 -1.444,-1.479 -2.33,-3.471 -2.33,-5.664 0,0 -0.29,-3.086 -0.29,-9.643 0,-6.558 0.29,-9.634 0.29,-9.634 0,-2.126 0.832,-4.064 2.2,-5.528 1.568,-1.679 3.545,-2.558 6.366,-2.734 2.822,-0.176 6.365,-0.287 17.135,-0.287 10.769,0 14.958,0.213 17.134,0.287 2.177,0.075 4.507,0.925 6.058,2.42 1.55,1.495 2.509,3.56 2.509,5.842 0,0 0.309,3.598 0.309,9.636 0,6.039 -0.309,9.641 -0.309,9.641 0,2.237 -0.922,4.266 -2.419,5.753 -1.557,1.547 -3.568,2.418 -6.148,2.507 -2.579,0.09 -6.865,0.289 -17.133,0.289 -10.268,0 -14.596,-0.18 -17.136,-0.289"
             style="fill:#161616;fill-opacity:1;fill-rule:evenodd;stroke:none"
             id="path20" />
        </g>
        <g
           id="g22"
           transform="translate(170.7584,63.3184)">
          <path
             d="m 0,0 h 59.97 c 3.154,0 5.618,-2.253 5.618,-4.915 0,-2.662 -2.558,-4.884 -5.712,-4.884 H 39.553 c -2.685,-0.153 -4.536,-2.112 -4.664,-4.547 v -35.447 c 0,-3.043 -2.237,-5.509 -4.998,-5.509 -2.76,0 -4.997,2.466 -4.997,5.509 v 35.461 c -0.136,2.43 -1.984,4.38 -4.664,4.533 H -0.094 c -3.154,0 -5.711,2.222 -5.711,4.884 C -5.805,-2.253 -3.154,0 0,0"
             style="fill:#161616;fill-opacity:1;fill-rule:evenodd;stroke:none"
             id="path24" />
        </g>
        <g
           id="g26"
           transform="translate(544.9939,16.6248)">
          <path
             d="m 0,0 c 2.307,-2.075 2.651,-5.335 0.769,-7.28 -1.882,-1.946 -5.277,-1.842 -7.584,0.231 L -23.93,8.393 c -1.415,1.271 -2.798,2.53 -5.1,2.53 -2.34,0 -3.697,-1.26 -5.115,-2.538 -1.418,-1.277 -17.102,-15.434 -17.102,-15.434 -2.306,-2.073 -5.702,-2.177 -7.584,-0.231 -1.881,1.945 -1.538,5.205 0.77,7.28 l 21.92,19.81 -21.714,19.604 c -2.308,2.075 -2.789,5.2 -0.906,7.148 1.882,1.946 5.015,1.576 7.32,-0.499 l 18.019,-16.286 c 1.19,-1.024 2.469,-1.896 4.387,-1.896 1.894,0 3.21,0.867 4.345,1.887 1.136,1.021 18.049,16.315 18.049,16.315 2.307,2.075 5.457,2.401 7.34,0.455 1.882,-1.947 1.373,-5.06 -0.932,-7.135 L -21.95,19.797 Z"
             style="fill:#161616;fill-opacity:1;fill-rule:evenodd;stroke:none"
             id="path28" />
        </g>
        <g
           id="g30"
           transform="translate(297.5789,63.096)">
          <path
             d="m 0,0 c 9.463,0 17.303,-7.401 17.303,-16.525 0,0 0.286,-3.894 0.286,-10.986 0,-7.092 -0.286,-11.044 -0.286,-11.044 0,-9.127 -7.672,-16.524 -17.134,-16.524 0,0 -5.556,-0.281 -18.567,-0.281 -13.012,0 -18.558,0.281 -18.558,0.281 -9.462,0 -17.133,7.397 -17.133,16.524 0,0 -0.296,3.326 -0.296,11.085 0,7.76 0.296,10.945 0.296,10.945 0,9.124 7.875,16.525 17.336,16.525 0,0 5.195,0.285 18.262,0.285 C -5.423,0.285 0,0 0,0 m -35.528,-9.642 c -2.539,-0.108 -4.674,-0.998 -6.236,-2.596 -1.444,-1.479 -2.33,-3.471 -2.33,-5.664 0,0 -0.29,-3.086 -0.29,-9.643 0,-6.558 0.29,-9.634 0.29,-9.634 0,-2.126 0.832,-4.064 2.2,-5.528 1.567,-1.679 3.545,-2.558 6.366,-2.734 2.822,-0.176 6.365,-0.287 17.135,-0.287 10.769,0 14.958,0.213 17.134,0.287 2.177,0.075 4.507,0.925 6.058,2.42 1.55,1.495 2.509,3.56 2.509,5.842 0,0 0.309,3.598 0.309,9.636 0,6.039 -0.309,9.641 -0.309,9.641 0,2.237 -0.922,4.266 -2.419,5.753 -1.557,1.547 -3.569,2.418 -6.148,2.507 -2.579,0.09 -6.865,0.289 -17.133,0.289 -10.268,0 -14.596,-0.18 -17.136,-0.289"
             style="fill:#161616;fill-opacity:1;fill-rule:evenodd;stroke:none"
             id="path32" />
        </g>
        <g
           id="g34"
           transform="translate(460.1038,63.096)">
          <path
             d="m 0,0 c 9.463,0 17.303,-7.401 17.303,-16.525 0,0 0.286,-3.894 0.286,-10.986 0,-7.092 -0.286,-11.044 -0.286,-11.044 0,-9.127 -7.672,-16.524 -17.134,-16.524 0,0 -5.556,-0.281 -18.567,-0.281 -13.012,0 -18.558,0.281 -18.558,0.281 -9.462,0 -17.133,7.397 -17.133,16.524 0,0 -0.296,3.326 -0.296,11.085 0,7.76 0.296,10.945 0.296,10.945 0,9.124 7.875,16.525 17.336,16.525 0,0 5.195,0.285 18.262,0.285 C -5.423,0.285 0,0 0,0 m -35.528,-9.642 c -2.539,-0.108 -4.674,-0.998 -6.236,-2.596 -1.444,-1.479 -2.33,-3.471 -2.33,-5.664 0,0 -0.29,-3.086 -0.29,-9.643 0,-6.558 0.29,-9.634 0.29,-9.634 0,-2.126 0.832,-4.064 2.2,-5.528 1.567,-1.679 3.545,-2.558 6.366,-2.734 2.822,-0.176 6.365,-0.287 17.135,-0.287 10.769,0 14.958,0.213 17.134,0.287 2.177,0.075 4.507,0.925 6.058,2.42 1.55,1.495 2.509,3.56 2.509,5.842 0,0 0.309,3.598 0.309,9.636 0,6.039 -0.309,9.641 -0.309,9.641 0,2.237 -0.922,4.266 -2.419,5.753 -1.557,1.547 -3.569,2.418 -6.148,2.507 -2.579,0.09 -6.865,0.289 -17.133,0.289 -10.268,0 -14.596,-0.18 -17.136,-0.289"
             style="fill:#161616;fill-opacity:1;fill-rule:evenodd;stroke:none"
             id="path36" />
        </g>
        <g
           id="g38"
           transform="translate(396.6945,61.4456)">
          <path
             d="m 0,0 c -2.296,1.478 -5.359,0.411 -7.111,-2.12 0,0 -22.285,-29.792 -24.238,-32.425 -1.952,-2.633 -3.276,-3.184 -4.778,-3.184 -1.377,0 -2.896,0.557 -4.862,3.198 -1.966,2.64 -24.253,32.444 -24.253,32.444 -1.758,2.514 -4.816,3.567 -7.104,2.093 -2.295,-1.479 -2.734,-4.727 -0.982,-7.258 l 32.548,-43.541 c 0.272,-0.391 0.613,-0.743 1.171,-1.234 0.879,-0.911 2.105,-1.48 3.482,-1.48 1.502,0 2.844,0.675 3.727,1.733 0.305,0.289 0.585,0.615 0.835,0.975 L 0.982,-7.256 C 2.734,-4.727 2.294,-1.478 0,0"
             style="fill:#161616;fill-opacity:1;fill-rule:evenodd;stroke:none"
             id="path40" />
        </g>
        <g
           id="g42"
           transform="translate(106.8981,36.9424)">
          <path
             d="m 0,0 -0.267,0.001 c -1.657,0 -3.161,0.671 -4.197,1.751 -0.91,0.947 -1.404,2.216 -1.481,3.566 -0.083,1.442 -0.089,4.42 0,5.878 0.087,1.426 0.626,2.753 1.617,3.713 0.89,0.862 2.327,1.615 4.419,1.615 0,0 4.153,0.002 15.667,0.002 11.514,0 15.656,-0.002 15.656,-0.002 4.73,0 8.566,-3.7 8.566,-8.262 C 39.98,3.698 36.144,0 31.414,0 Z m 36.371,-9.639 c 0,0 2.652,0.527 5.546,2.217 2.894,1.689 4.068,3.332 5.235,4.702 1.685,2.44 3.056,5.472 3.135,10.394 0.171,10.762 -8.594,18.487 -19.148,18.487 h -41.848 c -2.76,0 -4.997,-2.465 -4.997,-5.507 v -44.063 c 0,-3.041 2.237,-5.507 4.997,-5.507 2.76,0 4.997,2.466 4.997,5.507 v 8.95 c 0,2.663 2.238,4.82 4.998,4.82 h 22.567 l 19.243,-17.609 c 2.287,-2.094 5.682,-2.225 7.583,-0.295 1.899,1.93 1.584,5.192 -0.703,7.284 z"
             style="fill:#161616;fill-opacity:1;fill-rule:evenodd;stroke:none"
             id="path44" />
        </g>
        <g
           id="g46"
           transform="translate(456.2617,159.2696)">
          <path
             d="m 0,0 c 0,-19.079 -15.029,-32.942 -35.826,-34.542 -10.509,-0.809 -108.407,-0.696 -119.61,0 -21.141,1.312 -35.827,15.463 -35.827,34.542 0,0 -0.356,11.12 -0.356,16.239 0,5.119 0.085,16.214 0.085,16.214 0,6.16 5.28,11.148 11.666,11.148 h 54.605 c 0,0 39.06,-36.053 44.246,-40.754 5.579,-4.271 12.644,-5.097 16.973,-0.564 4.027,4.217 4.217,10.948 -1.794,16.744 0,0 -27.782,25.47 -27.847,25.53 l 0.006,10e-4 h 0.001 c 0.011,0.002 21.768,3.853 29.524,24.62 7.756,20.767 -3.614,35.372 -3.621,35.381 v 0 h 31.949 C -16.039,104.559 0,89.092 0,70.011 0,70.011 0.349,67.254 0.349,35.055 0.349,2.857 0,0 0,0 m -191.58,91.504 c 0.143,3.42 1.468,6.597 3.793,8.898 2.409,2.385 5.799,3.835 9.513,3.835 2.142,0.084 10.391,0.308 40.628,0.301 30.372,-0.007 33.931,-0.301 33.931,-0.301 11.692,-0.293 19.832,-8.87 19.832,-19.805 0,-9.192 -6.713,-17.015 -15.681,-19.214 -4.518,-1.108 -8.232,-0.826 -21.154,-0.826 -5.375,0 -10.539,0.043 -16.928,0.039 -28.074,-0.017 -38.882,0.023 -40.616,0.239 -4.453,0.352 -7.414,1.608 -9.844,4.195 -2.134,2.272 -3.333,5.31 -3.474,8.549 -0.151,3.456 -0.147,10.595 0,14.09 M 21.375,70.459 c -0.772,30.124 -25.677,54.243 -56.42,54.202 h -164.977 c -7.974,0 -13.092,-5.706 -13.092,-12.745 V -0.831 c -0.027,-29.874 25.247,-53.774 55.975,-54.4 30.667,-0.624 91.383,-0.815 122.105,0 30.993,0.823 55.51,23.099 56.42,54.4 z"
             style="fill:#161616;fill-opacity:1;fill-rule:nonzero;stroke:none"
             id="path48" />
        </g>
      </g>
    </g>
  </g>
</svg>
